<svg xmlns="http://www.w3.org/2000/svg" xmlns:xlink="http://www.w3.org/1999/xlink" width="116" height="117" viewBox="0 0 116 117"><defs><path id="pygqa" d="M7200.73 36.68l-.2.09-1.28-2.68c.17-.15.34-.28.51-.36.38-.18.76-.22 1.1-.1.38.1.65.38.84.8.14.26.2.54.2.84-.01.3-.12.57-.38.82-.24.25-.5.44-.79.59m57.6 71.2a4.65 4.65 0 0 1 1.53 2.08c.17.68.06 1.22-.32 1.66-.38.43-.91.61-1.58.53-.67-.1-1.44-.5-2.27-1.25-.9-.77-1.4-1.5-1.56-2.15-.14-.65-.01-1.18.35-1.59.4-.46.93-.64 1.61-.52.7.12 1.44.53 2.23 1.24m-62.78 9.72c.33.09.63.22.9.4.05.02.09.06.18.13l-1.66 2.45a2.7 2.7 0 0 1-.57-.26 1.4 1.4 0 0 1-.65-.92c-.09-.37 0-.74.27-1.12.16-.25.37-.45.63-.59.26-.14.55-.17.9-.09m19.1-85.53a39.22 39.22 0 0 1-.4-2.9c.3-.14.54-.23.75-.26.29-.04.57.03.84.24.24.2.4.54.48 1.02.16 1.09-.4 1.72-1.66 1.9m-19.81 11.61a4.64 4.64 0 0 1-1.9-1.69c-.66-.9-1-1.7-1.03-2.38-.01-.68.2-1.19.68-1.53.46-.35 1.03-.4 1.66-.16.63.23 1.29.8 1.94 1.7.7.96 1.04 1.77 1.04 2.45-.01.66-.24 1.16-.69 1.48-.48.36-1.05.4-1.7.13m75.66 36.91l-1.28.45c-.52.18-.92.32-1.22.4l.08-1.96 2.42 1.11m-88.55 26.5c.31-.23.71-.29 1.21-.2-.05.78-.21 1.28-.52 1.5a.68.68 0 0 1-.54.14.65.65 0 0 1-.43-.26.78.78 0 0 1-.12-.58c.03-.24.16-.43.4-.6m4.78-2.69c.26.38.31.8.17 1.24-.15.45-.4.79-.73 1.03-.42.3-.96.36-1.63.16.09-1.1.4-2.16.92-3.2.61.18 1.03.44 1.27.77m28.47-72.01c.55-.08.99.02 1.3.3.32.28.51.66.58 1.16.07.49-.01.9-.23 1.21-.22.32-.59.52-1.13.6-.28.03-.46.01-.53-.08-.07-.1-.15-.48-.24-1.15-.1-.53-.16-1.16-.24-1.94l.49-.1m6.3 89.5c.62 0 1.11.3 1.46.9.36.6.53 1.43.52 2.5a4.62 4.62 0 0 1-.58 2.51c-.4.57-.87.85-1.47.85-.56-.01-1.04-.3-1.43-.87a4.65 4.65 0 0 1-.53-2.53c0-1.19.2-2.05.61-2.59.41-.53.9-.78 1.43-.78m53.68-43.3a53.25 53.25 0 0 1-53.2 53.3 53.27 53.27 0 0 1-53.23-53.3 53.26 53.26 0 0 1 53.23-53.3 53.24 53.24 0 0 1 53.2 53.3zm-107.26 0c0 29.85 24.24 54.15 54.06 54.15 29.8 0 54.05-24.3 54.05-54.15 0-29.86-24.25-54.15-54.05-54.15-3.26 0-6.46.3-9.57.85a54.21 54.21 0 0 0-44.5 53.3zm103.3-5.91c-.25.1-1 .22-2.3.3-2.02.17-3.18.21-3.5.17-.33-.06-.52-.27-.56-.64-.03-.22-.07-.33-.2-.32-.08 0-.13.1-.13.28l.19 1.74c.02.18.03.45.03.81 0 .43 0 .71.02.86.02.18.08.25.2.24.07 0 .11-.03.13-.07.02-.06.02-.17.01-.35 0-.24 0-.43.05-.54a.74.74 0 0 1 .34-.29c.16-.06.44-.11.84-.15l2.06-.15c.04.7-.01 1.17-.2 1.37-.2.22-.45.35-.78.42-.16.02-.23.08-.22.18 0 .06.03.1.08.12.04.01.37 0 .99-.03l1.77-.09c.13 0 .2-.07.2-.18-.01-.06-.07-.1-.17-.12a2 2 0 0 1-.82-.27c-.14-.1-.26-.26-.33-.48a4.82 4.82 0 0 1-.17-.94c1.7-.12 2.61-.16 2.72-.1.13.06.23.36.26.91.06.8-.02 1.39-.24 1.76-.22.38-.54.73-.97 1.04-.07.06-.1.11-.1.17 0 .07.05.1.16.1l.08-.02 1.65-.41-.44-6.09c-.03-.21-.08-.31-.19-.3-.11 0-.15.07-.15.2l.02.15c.03.36-.09.6-.32.7.05-.01.18-.07 0 0l-.01.02zm-3.96-9.6l-.02-.01c-.39-.2-.8-.24-1.2-.1-.43.12-.73.38-.93.77-.21.38-.25.8-.11 1.21a1.57 1.57 0 0 0 1.99 1.04c.41-.14.72-.4.92-.79a1.56 1.56 0 0 0-.65-2.12zm-4.2-13.16c.1.27.15.47.14.59-.01.14-.1.27-.29.4-.18.14-.69.46-1.51.96l-2.46 1.45c-.5.31-.88.47-1.1.46-.23 0-.44-.16-.63-.47-.07-.12-.16-.15-.24-.1-.1.06-.12.16-.01.31 0 .04.04.08.09.15a18.72 18.72 0 0 1 1.35 2.17c.23.43.48.89.78 1.37l1.03 1.72 1.54-.51c.1-.03.17-.06.22-.09.06-.05.08-.11.03-.2-.04-.06-.14-.1-.26-.08-1 .08-1.86-.49-2.6-1.69-.2-.33-.3-.59-.3-.78 0-.19.06-.34.19-.44.12-.1.55-.37 1.26-.8.18-.11.53-.32 1.07-.62.28.49.41.89.41 1.21-.02.31-.17.59-.42.84-.14.13-.2.24-.16.31.07.1.15.13.23.07l.08-.05c.1-.1.21-.18.34-.27.98-.59 1.58-.93 1.8-1l.08-.04c.07-.05.08-.11.04-.2-.06-.07-.13-.1-.25-.06-.07.02-.24.03-.5.04-.28 0-.48-.05-.65-.18-.15-.12-.3-.3-.44-.52l-.21-.37.56-.35c.67-.4 1.3-.75 1.89-1.02.22.23.4.48.56.77.32.5.48.94.49 1.3 0 .37-.12.86-.4 1.47-.06.12-.06.2-.02.25.04.1.12.1.21.05l1.3-1.2-2.32-3.82-.64-1.17c-.07-.11-.15-.15-.25-.09-.06.05-.08.12-.04.21-.02-.05-.08-.18 0 0v.02zm-72.17 52.25c1.4-.18 2.78-.66 4.17-1.46-.3 1.44-.28 2.6-1.88 3.53a.9.9 0 0 1-.49.13 38.83 38.83 0 0 0 29.3 13.26 39 39 0 0 0 38.97-39.04c0-8.64-2.8-16.63-7.57-23.1v7.45l-.65.49c-.1.16-.19.29-.3.38.3-.03.63-.03.95 0v3.47a1.64 1.64 0 0 1-.16-1.17c.3-1.4-1.2-1.88-2.33-1.63-.35.16-.7.3-1.07.43.47-.06 1.29.19 1.42.52l.02.06c.54.3 1 .73 1.13 1.3.05.21.06.41.05.6.24-.05.46-.03.61.23.19.3-.02.62-.12 1-.17.59-1.16 1.48-1.65.99-.56-.57-1.27-.43-1.26-1.13l.29-.17-.13-.13c-.06.04-.13.08-.22.11 0-.3-.21-.6-.48-.46.42-.86.14-1.38.01-1.98-.09-.05-.16-.1-.26-.14l.05.32c.1.6.14 1.17.08 1.81-.3 0-.36.27-.54.1l-.14-.15-.14.07c.07.1.14.2.14.27-.02.53-.75.76-1.1.91-.43.2-.86.35-1.34.46a.67.67 0 0 1-.24.01l-.31-.3c-.14-.45.02-1.29.2-1.88a.53.53 0 0 1-.2-.07c-.29-.19-.45-.56-.2-.92.3-.45-.18-.82-.6-.89-.15 0-.3-.03-.45-.05.44.72 1.04 1.92.74 2.67-.07.13-.32.11-.71-.02l-4.04-3.85-.55-.52-.36-.23-4.33-2.9-.48-.3-2.98-2-.26-.17-1.25-.83h-1.92v8.4l-.43-.23c-1.37-.52-6.7-1.35-5.33-3.72.43-.71 1.81-1.74 2.7-2.27 1.58-.96 2.81-2.79 4.08-3.9.77-.7 1.6.48 2.25 2.3l.02-.02s2.27 1.89 4.3 2.6c2.76.28 9.16.06 11.72-7.36-.2-.02-.34-.05-.4-.09h3.47c-.05.18-.17.48-.34.88.3-.15.73-.41 1.12-.79a38.88 38.88 0 0 0-29.49-13.52 38.88 38.88 0 0 0-29.42 13.43h4.33c1.27 1 2.48 2.33 3.84 3.73.32-.22.73-.33 1.19-.25a1.1 1.1 0 0 1-.3-.93c-.1.04-.18.08-.27.1-.95.23-1.52-.14-1.77-.62a1.08 1.08 0 0 1 .4-2.03h.2c.11.02.24.05.36.1l.11.08c.2-.03.4.02.63.12.33.14.61 0 .84-.3h1a3.95 3.95 0 0 1-.54 1.65c.46-.05.88.2 1.07.61.07-.36.08-.75 0-1.1-.16-.37-.31-.75-.45-1.16h1c.22.44.47.88.76 1.32.3-.16.69-.18 1-.02a1.07 1.07 0 0 1 .37 1.62l.3.3a1.58 1.58 0 0 1 2.25-.49c.07.06.13.1.17.15a15 15 0 0 1 3.35-2.81l.08-.07h5.77c.48 3.08 1.26 7.12 0 8.45-.12.15-5.3-1.37-6.12-1.76-.89-.45-2.39-.68-3.12-1.46-.59.49-1.57.6-2.52-.17-.07-.06-.38-.32-.8-.79.04.86.35 2.66 2.2 3.1.1-.22.23-.4.49-.53 1.94-1.15 2.86.54 3.92.78 2.5.51 3.44.83 5.7 1.44-.7.77-.85 2.02.13 2.3-4.1 1.68-3.5 4.61-6.06 6.9-.38.36-.78-.03-1.18-.76.46 1.43.38 3.23-.63 5.86-1.31-3.2-5.75-4.01-8.15-8.22-.34-.62-.62-1.24-.83-1.84v-.43c0-1.04-.17-2.02-.51-2.97.06-.98.24-2 .62-3.1a1.64 1.64 0 0 1-.54-.15c-.39.47-.72.95-.97 1.42-.3-.47-.66-.95-1.06-1.4.43-.24.88-.46 1.35-.64-.15-.23-.23-.5-.25-.75-.6.17-1.08.2-1.55.16.49-.14 1-.23 1.54-.28l.02-.17c.04-.27.16-.52.3-.75a12 12 0 0 0-4.64-.24c-1.6-1-3.21-1.6-4.83-1.79a39.02 39.02 0 0 0-7.79 23.42c0 8.85 2.96 17.03 7.92 23.58 0 0-1.39.19 0 0zm12.9-43.68c-.26.43-.58.77-1 .99-.16.07-.32.13-.46.17 2.4 5.39 6.4 6.9 8.06 9.71a32.92 32.92 0 0 1-1.32-4.74c-.16-.7-.5-1.48-.81-2.22a3.6 3.6 0 0 1-1.63-.9c-.9-.83-1.27-2.84-1.02-4.35-.3-.34-.65-.78-1-1.3l-.08-.12a36.7 36.7 0 0 0-.24-.39l.02.18c.11.83-.02 1.95-.45 2.83a1 1 0 0 0 .2.46c.2-.21.52-.28.79-.12.3.17.4.57.22.86a.63.63 0 0 1-.94.19c-.46-.3-.42-.88-.35-1.25zm48.88 2.77a1.6 1.6 0 0 1-.23-2.03c.1-.15.23-.26.36-.35-.75-.03-1.5-.45-1.68-1.36-.1-.5-.37-.78-.72-.94a1.07 1.07 0 0 1-.42-.1 2.47 2.47 0 0 0-1.65.5c-.3.32-.63.66-1 .98l.14-.05c.94-.3 2.48-.32 3.16.56.99 1.3.02 2.34-.71 2.34-.71.01-1.43-.46-1.42-1.32.02-1.1-2.36-.74-3.17-.36-.27.18.63-.13.35.04.62-.1 1.55 0 1.9.6.55.89-.14 1.5-.62 1.45-.46-.05-.88-.4-.82-.95.1-.7-.66-.87-1.21-.7-.3.15-.6.3-.92.41.44 0 1 .15 1.21.56.37.7-.18 1.11-.54 1.05-.33-.05-.64-.33-.56-.74.1-.54-.48-.7-.9-.58-.77.24-1.62.41-2.54.53 4.15.84 7.6 3.97 4.85 4.12 2-.01 4.12-.6 6.14-2.23.05-.15.09-.3.18-.47.15-.3.43-.64.82-.96 0 0 .55.53 0 0zm-5.17 5.53c-.28-.17-.5-.34-.58-.77-.03-.14.07-.28.2-.4-.12-.05-.26-.1-.4-.12-.32.02-.65.02-1 .01.38.17.78.49.88.9.28.04.47.29.75.51.02.03.07.05.1.07 0-.06.02-.14.05-.2 0 0 .27.17 0 0zm-.04-1.43l.1-.06c.02 0 .05-.01.07-.03l-.35-.01c-.16.03.03.07.18.1 0 0-.05.02 0 0zm-2.85-.48a4.69 4.69 0 0 1-.54-.08l.02.03.52.05s.17.02 0 0zm7.49-11.08l-.37-.43c-.46.25-.96.46-1.43.57-.24.54-.6 1.23-1.12 1.95l.16-.1c.27-.16.6-.3.94-.42.05-.03.12-.04.2-.07a4.96 4.96 0 0 1 1.64-.23c-.02 0-.03 0 0 0 .16-.1.27-.24.32-.37a.66.66 0 0 1-.41-.67.5.5 0 0 1 .07-.23s.12.14 0 0zm.18 1.28c.4.04.78.16 1.1.39-.15-.23-.31-.44-.47-.65-.2.15-.45.22-.63.26zm4.81-11.3c-.17.22-.4.46-.7.73l-2.25 1.93c-.38.34-.64.63-.78.89-.13.26-.2.53-.2.85 0 .31.1.65.31 1.02.2.38.47.77.83 1.19a4 4 0 0 0 1.44 1.11c.5.2.95.24 1.42.1a5.42 5.42 0 0 0 1.76-1.16c1.1-.96 1.79-1.54 2.09-1.74.28-.2.55-.29.76-.28.2.01.38.08.51.21.11.09.2.1.25.05.09-.07.06-.17-.06-.3-.05-.07-.13-.17-.28-.3a4.34 4.34 0 0 1-.47-.5c-.15-.17-.3-.33-.4-.5l-.27-.34c-.12-.14-.22-.17-.3-.1-.06.08-.04.2.08.38.17.24.18.51.05.8-.17.3-.56.72-1.15 1.24-1.03.9-1.76 1.48-2.2 1.73a2 2 0 0 1-1.22.29 2 2 0 0 1-1.08-.71 2.39 2.39 0 0 1-.62-1.2c-.05-.4.02-.74.22-1.05.21-.32.71-.82 1.51-1.5.49-.43.95-.81 1.37-1.15.46-.33.78-.5.99-.52.22-.01.43.07.61.27.1.1.2.12.27.06.07-.07.04-.17-.07-.31a12.32 12.32 0 0 0-.98-1.02l-1.12-1.38c-.12-.12-.2-.15-.3-.07a.17.17 0 0 0-.04.11c0 .03.04.1.11.22.11.17.18.32.18.44 0 .14-.08.32-.27.52 0 0 .18-.22 0 0zm-3.6-4.55c.2.16.47.38-.13-.1a3.79 3.79 0 0 0-2.88-.85 3.7 3.7 0 0 0-2.61 1.42c-.44.56-.7 1.16-.8 1.81a3.42 3.42 0 0 0 2 3.64c-.28-.05-.9-.2-1.88-.47-1.5-.4-2.43-.4-2.78.05a.4.4 0 0 0-.08.37c0 .14.09.25.2.35.15.12.28.16.41.14.12-.02.28-.13.44-.32.18-.2.33-.32.48-.35.13-.04.28 0 .43.12.11.1.21.25.32.45l.4 1.12c.28.74.65 1.3 1.14 1.68.5.4 1.06.56 1.68.47.62-.09.96-.18 1.04-.27.08-.11.07-.22-.02-.3-.07-.05-.16-.06-.27-.02-.48.16-.9.12-1.2-.14a.78.78 0 0 1-.24-.24c-.04-.08-.15-.3-.29-.66-.19-.5-.36-.88-.5-1.11a2.03 2.03 0 0 0-.82-.8l1.73.4a7.8 7.8 0 0 0 1.5.2c.48 0 .91-.04 1.34-.15a3.8 3.8 0 0 0 2.81-3.96 3.63 3.63 0 0 0-1.41-2.48zm-7.08-4.13c.03.13-.03.37-.18.72-.18.35-.54 1.02-1.13 2-.54.94-.95 1.62-1.25 2.05-.25.43-.49.68-.66.73-.16.06-.38.04-.68-.1-.1-.04-.18-.02-.22.05-.05.1-.02.17.09.25l.28.13a15.27 15.27 0 0 1 2.28 1.36l.2.14c.16.1.28.1.35-.02.04-.08 0-.17-.16-.26-.23-.13-.34-.3-.36-.48-.02-.19.1-.56.4-1.13a42.96 42.96 0 0 1 2.39-4c.18-.22.34-.34.48-.36.12-.01.3.03.56.15.14.06.21.05.26-.03.06-.09.02-.16-.1-.24l-1.49-.82-.62-.4-.66-.43c-.12-.08-.2-.06-.27.02-.04.09 0 .17.1.25.23.16.35.3.4.42 0 0-.03-.13 0 0zm-9.67 2.88c-.04.07 0 .13.06.18l.32.14.65.24 1.5.63 1.04.47.15.07c.11.05.2.02.23-.07.04-.09-.01-.17-.15-.23-.36-.18-.6-.35-.66-.46-.09-.12-.1-.26-.09-.43.03-.18.17-.64.45-1.4.28-.75.6-1.53.92-2.33.33-.78.64-1.43.92-1.93.62.27 1.04.49 1.28.66.25.18.43.4.55.69.1.28.18.6.2.92 0 .2.05.31.12.35.14.04.2 0 .26-.13l.27-.84c.13-.45.24-.75.27-.9a18.05 18.05 0 0 0-1.03-.42c-.8-.28-1.5-.56-2.14-.83-.85-.36-2.17-.94-3.9-1.73-.17.25-.36.57-.58.98l-.35.64c-.04.1-.01.18.12.23.06.03.16 0 .28-.1.28-.28.58-.46.9-.58.31-.1.61-.13.87-.07.28.07.69.21 1.25.45a39.73 39.73 0 0 1-2.17 5.36.92.92 0 0 1-.53.47c-.2.07-.46.03-.75-.1-.14-.05-.23-.03-.26.07 0 0 .04-.07 0 0zm-8.11-4.42c-.12.51-.15.9-.1 1.18.04.28.17.55.35.8.19.25.47.46.84.64.38.2.82.33 1.37.46a4 4 0 0 0 1.8.03c.53-.14.93-.4 1.21-.77.3-.38.52-1.05.74-1.99.3-1.41.51-2.3.64-2.63.1-.34.25-.56.44-.68a.85.85 0 0 1 .55-.15c.11.02.2-.02.21-.1.02-.1-.06-.18-.23-.22l-.39-.06c-.27-.04-.48-.07-.68-.12l-.64-.16-.41-.12c-.15-.03-.26-.01-.3.1-.02.1.08.2.3.26.28.09.46.3.52.63a5 5 0 0 1-.18 1.66 14.53 14.53 0 0 1-.76 2.71c-.21.47-.46.78-.8.95-.32.18-.75.2-1.28.08a2.41 2.41 0 0 1-1.22-.6c-.26-.27-.41-.6-.43-.97a9.3 9.3 0 0 1 .3-2.1c.13-.64.29-1.22.44-1.74.15-.53.3-.87.47-1 .16-.15.38-.2.65-.16.13.02.2-.01.24-.1.02-.11-.06-.18-.24-.22l-.8-.14a4.7 4.7 0 0 1-.58-.1l-1.73-.43c-.17-.03-.23.01-.27.1-.01.07-.01.1.04.14 0 .03.09.07.2.11a.8.8 0 0 1 .41.26c.08.1.12.3.1.56-.01.27-.06.6-.14 1l-.64 2.9s.11-.51 0 0zm-7.97-4.36a3.7 3.7 0 0 0-1.23 2.72 3.4 3.4 0 0 0 1.02 2.7 3.82 3.82 0 0 0 2.63 1.08 3.8 3.8 0 0 0 2.9-1.13 3.79 3.79 0 0 0 .78-4.58 3.6 3.6 0 0 0-3.25-1.84 3.89 3.89 0 0 0-2.85 1.05zm0 0c.67-.64.11-.11 0 0zm-8.95-.04c-.09.03-.12.08-.11.17.01.05.04.09.08.1.05.02.14.03.29.02.16-.02.29 0 .4.04a.5.5 0 0 1 .2.27c.08.13.16.43.25.91l.29 1.9.32 2.58c.05.25.05.45-.01.58a.57.57 0 0 1-.22.28c-.1.06-.26.13-.47.2-.13.02-.18.08-.17.16.02.1.1.14.24.13l.37-.09a13.49 13.49 0 0 1 1.77-.26l.88-.1c.77-.1 1.33-.25 1.72-.42.38-.18.7-.45.92-.82.22-.38.3-.78.24-1.2-.07-.5-.32-.9-.75-1.17a3.67 3.67 0 0 0-1.8-.5c1.23-.56 1.8-1.27 1.66-2.12a1.41 1.41 0 0 0-.78-1.12c-.43-.24-1-.3-1.66-.21-.23.03-.53.09-.9.17-.63.14-1.3.27-2.05.37-.4.05-.63.1-.71.13 0 0 .08-.03 0 0zm-14.75 5.6c-.18.09-.24.18-.2.27.04.1.14.12.27.05.37-.17.64-.17.8 0 .2.16.5.7.95 1.64l.86 1.79.45.93c.34.7.45 1.12.34 1.3-.11.16-.26.3-.44.39-.13.05-.17.13-.12.22.05.1.14.11.27.04.08-.03.27-.13.56-.3l.77-.4 1.56-.7c.13-.06.17-.14.13-.23-.04-.1-.15-.11-.3-.04-.28.12-.5.15-.67.08-.16-.08-.3-.24-.44-.51l-1.05-2.15.3-.17c.27-.13.53-.18.79-.16.24.02.49.14.72.36.22.22.55.64.95 1.25.33.48.62.76.93.87l1.94-.87c.17-.08.28-.16.31-.23v.08c.04.1.11.13.25.08l.26-.1c.25-.12.63-.27 1.17-.45.25-.08.7-.2 1.37-.37l.24-.08c.18-.06.25-.15.22-.27-.04-.1-.15-.11-.3-.06-.26.08-.46.07-.62-.03-.16-.11-.35-.46-.58-1.05-.23-.59-.54-1.45-.9-2.55-.33-.97-.5-1.59-.56-1.9-.04-.27 0-.47.05-.58.07-.1.24-.21.5-.33.13-.06.17-.13.14-.22s-.12-.12-.25-.07l-1.59.58c-.18.06-.41.13-.71.2l-.77.23c-.13.04-.17.1-.15.2.03.1.12.13.26.1.25-.06.44-.07.57-.01.1.05.25.26.41.6.16.37.42 1.09.79 2.16.33 1.03.57 1.8.7 2.29.16.5.2.82.14.98-.07.17-.24.31-.53.45a.18.18 0 0 0-.09.09l-.01-.07c-.04-.1-.16-.1-.32-.04a1 1 0 0 1-.8.01c-.24-.1-.57-.42-1-.93-.45-.55-.86-.86-1.24-.93-.4-.07-.83-.02-1.31.13.4-.24.7-.49.95-.76.25-.28.4-.59.49-.94a1.58 1.58 0 0 0-1.34-1.9 3.44 3.44 0 0 0-2 .4l-.76.4c-.62.37-1.4.78-2.36 1.22 0 0 .2-.09 0 0zm-6.17 5.56a3.71 3.71 0 0 0 .67 2.88 3.42 3.42 0 0 0 2.48 1.52 3.9 3.9 0 0 0 2.74-.76 3.85 3.85 0 0 0 1.6-2.66 3.92 3.92 0 0 0-.67-2.9c-.4-.55-.9-.95-1.5-1.2-.61-.26-1.23-.36-1.86-.26-.62.08-1.24.34-1.85.78a3.81 3.81 0 0 0-1.59 2.46c.04-.23.1-.63 0 0l-.02.14zm-4.88 3.1c-.1.1-.1.18-.04.25.07.07.16.06.27-.03.2-.17.37-.25.5-.25s.34.12.63.37c.3.25.84.78 1.65 1.6.75.79 1.3 1.37 1.64 1.75.33.39.5.66.53.84.01.17-.08.38-.27.63-.07.09-.08.16-.03.22.07.08.16.07.25-.01.06-.05.12-.13.2-.23a13.76 13.76 0 0 1 1.94-1.84l.17-.16c.15-.13.18-.25.08-.34-.07-.07-.17-.05-.3.08-.18.18-.37.26-.55.23-.19-.03-.51-.26-.98-.7-.46-.43-1.1-1.06-1.92-1.9a15.1 15.1 0 0 1-1.3-1.46c-.16-.25-.23-.43-.2-.57 0-.11.1-.29.3-.51.07-.1.08-.19.03-.25-.08-.07-.16-.06-.27.05l-1.18 1.2a42.3 42.3 0 0 1-1.15 1.03s.1-.09 0 0zm-4.74 5.66c-.14.16-.17.28-.09.35.1.06.18.05.26-.06l.09-.11c.23-.29.47-.39.72-.3.27.09.9.53 1.9 1.37a25.34 25.34 0 0 1 2.64 2.3c.2.25.18.54-.04.83-.12.18-.15.3-.08.36.08.07.2.03.3-.1l1.06-1.4a178.37 178.37 0 0 0 1.11-1.25c.1-.13.1-.23.02-.31-.05-.04-.1-.05-.15-.03-.05.03-.13.1-.24.24-.16.19-.32.3-.41.35-.13.06-.27.04-.44 0a2.85 2.85 0 0 1-.72-.5l-1.6-1.3c.45-.54.82-.82 1.09-.86.28-.02.56.07.85.25.13.08.21.08.28.01.04-.05.04-.1.03-.13a6.63 6.63 0 0 0-.74-.67l-1.35-1.15c-.1-.08-.2-.08-.26 0-.04.05-.03.1.04.2.23.32.37.57.4.75.04.19.01.37-.09.59-.09.2-.26.46-.52.78-1.32-1.08-2-1.67-2.04-1.8-.05-.12.1-.4.43-.83.52-.62.98-.99 1.4-1.1.4-.13.88-.16 1.4-.1.1 0 .16 0 .2-.05.04-.04.03-.12-.07-.18l-.06-.05-1.48-.83-3.84 4.73s.14-.17 0 0zm-2.89 8.87c-.18.4-.2.8-.05 1.2.15.43.42.72.81.9a1.54 1.54 0 0 0 2.1-.74c.2-.4.21-.81.07-1.22-.15-.41-.42-.72-.81-.9-.4-.19-.8-.2-1.22-.06-.4.15-.7.42-.9.82 0 0 .19-.4 0 0zm-5.55 9.83l-.03.13c-.17.75-.1 1.4.2 1.92.3.53.74.86 1.3.97a2.1 2.1 0 0 0 1.92-.6c.24-.26.53-.67.86-1.24.35-.58.65-.97.92-1.16.28-.2.58-.25.9-.18.32.06.57.26.77.58.2.32.25.69.14 1.1-.1.51-.38.92-.82 1.2-.45.3-.96.5-1.55.61-.19.03-.3.1-.32.17-.02.1.02.17.13.2l.16.02 2 .27c.2.04.3 0 .31-.09.03-.08-.03-.18-.16-.27a1.11 1.11 0 0 1-.29-.25c.25-.32.45-.62.63-.94.16-.3.27-.61.33-.92.13-.54.13-1 0-1.4-.12-.39-.32-.74-.61-1.07a2.19 2.19 0 0 0-2.64-.44c-.48.26-.96.84-1.45 1.74a3.4 3.4 0 0 1-.83 1.13.9.9 0 0 1-.73.18.96.96 0 0 1-.68-.51 1.33 1.33 0 0 1-.1-.95c.07-.36.28-.68.62-.98.34-.32.67-.5 1.03-.58l.38-.12c.04-.03.07-.07.08-.14.02-.1-.01-.16-.1-.18l-.2-.02-1.52-.13c-.16-.01-.25.02-.26.12-.03.07.01.14.11.23.1.06.15.12.2.18a5.68 5.68 0 0 0-.7 1.42zm-.9 7.28c-.06.92-.17 2.34-.33 4.25a11.48 11.48 0 0 0 1.83.34c.1 0 .17-.06.17-.18 0-.09-.06-.16-.19-.23-.35-.18-.62-.4-.83-.66-.2-.27-.32-.53-.36-.82-.04-.27-.04-.7 0-1.32a39.02 39.02 0 0 1 5.77.27c.29.05.5.17.63.34.12.18.17.43.16.75-.01.15.04.22.13.22.09.01.13-.03.16-.11l.03-.35.02-.7.08-1.62.1-1.15.02-.16c0-.12-.05-.19-.16-.2-.08 0-.14.07-.15.21-.06.42-.13.7-.22.8-.07.11-.2.19-.38.22-.16.04-.65.05-1.46.04l-2.5-.1c-.85-.06-1.55-.13-2.12-.22.05-.67.1-1.15.19-1.43.09-.29.25-.53.47-.74.23-.2.5-.37.8-.49.19-.09.28-.16.28-.25.01-.13-.05-.19-.2-.2l-.88.03c-.47.01-.79.03-.93.04l-.03.38-.02.73c-.01.84-.04 1.61-.07 2.31 0 0 .06-.92 0 0zm1.78 15.53c.06-.12.28-.23.65-.35a50.43 50.43 0 0 1 4.55-1.06c.5-.1.84-.1 1-.03.15.08.29.27.4.57.04.1.1.15.18.13.1-.02.14-.1.1-.24a13.1 13.1 0 0 1-.4-1.48c-.06-.25-.13-.72-.24-1.4l-.04-.24c-.05-.19-.13-.27-.25-.25.04-.03.06-.12.05-.23l-.24-1.74a12.4 12.4 0 0 1-.05-.81 7.71 7.71 0 0 0-.06-.86c0-.17-.08-.24-.2-.24-.06.01-.1.04-.13.1a2 2 0 0 0 0 .33c.02.24 0 .43-.04.54-.04.12-.15.23-.31.3-.16.07-.45.13-.85.17l-2.05.22c-.06-.7 0-1.17.17-1.38.17-.21.44-.36.77-.44.14-.02.21-.1.2-.18-.01-.07-.03-.1-.08-.13-.04 0-.38 0-1 .06l-1.74.15c-.15.01-.21.08-.2.19 0 .05.06.1.16.11.4.05.68.14.84.24.14.1.26.27.35.48.07.21.13.52.18.93-1.7.18-2.6.23-2.72.18-.13-.05-.21-.35-.27-.9-.09-.8-.03-1.38.19-1.77.2-.38.51-.73.91-1.06.08-.06.12-.12.12-.17-.02-.08-.06-.1-.17-.09l-.08.01-1.64.46.64 6.07c.02.21.09.31.19.3.11 0 .16-.08.14-.2l-.02-.16c-.03-.37.07-.6.3-.73.24-.12 1.01-.25 2.3-.38 2-.2 3.17-.3 3.5-.25.32.04.5.25.57.61.02.22.09.32.2.31-.05.04-.05.14-.02.26.05.25.02.46-.1.6-.11.15-.48.3-1.1.48-.6.17-1.49.39-2.63.65-.98.23-1.63.34-1.91.35-.3 0-.5-.02-.6-.1-.09-.08-.18-.26-.28-.53-.05-.13-.1-.17-.2-.16-.09.03-.12.1-.09.25l.42 1.65c.05.17.08.42.14.72l.13.78c.04.14.1.2.2.17s.13-.1.11-.25c-.03-.24-.02-.42.03-.53 0 .02-.02.04 0 0l.02-.03zm3.4 8.41l.05.02c1 .41 1.98.43 2.97.05.7-.27 1.25-.67 1.62-1.21.38-.54.6-1.14.67-1.8a4.52 4.52 0 0 0-.3-2.07 6.13 6.13 0 0 0-2.17-2.76l-.36.12c-.97.33-1.5.5-1.62.47-.1-.02-.2-.1-.31-.28l-.28-.4c-.03-.03-.08-.03-.12-.01-.1.03-.12.1-.08.2l.96 2.38.3.79c.05.12.12.16.22.12.1-.04.12-.12.07-.25a2.64 2.64 0 0 1-.1-.71.57.57 0 0 1 .2-.35c.13-.1.49-.26 1.07-.48.25-.1.47-.14.64-.13.18.04.36.16.6.4.23.22.39.46.49.73.24.62.15 1.29-.27 1.97a3.9 3.9 0 0 1-2.05 1.57c-.85.33-1.65.4-2.43.21a2.09 2.09 0 0 1-1.58-1.37 2.48 2.48 0 0 1-.05-1.71c.17-.58.5-1.1.94-1.6.1-.1.14-.2.1-.28-.04-.1-.1-.13-.21-.08l-.16.08-1.45.72c-.22.1-.3.2-.26.29.03.09.12.13.27.12.1 0 .18.04.2.11.03.06.04.14.04.24-.02.5-.02.95 0 1.33.04.37.12.77.27 1.2a3.99 3.99 0 0 0 2.13 2.37zm7.44 8.2c1.03.38 1.74.55 2.12.5.38-.07.7-.18.97-.36.45-.33.7-.73.76-1.22.05-.5-.07-.98-.4-1.45-.44-.61-1.2-1.07-2.27-1.37.16-.38.25-.71.27-.99.03-.28-.04-.53-.2-.78-.22-.3-.53-.55-.94-.75-.4-.2-.66-.26-.74-.2-.09.06-.1.13-.03.23l.2.11c.22.07.37.19.46.32.23.32.09.96-.43 1.9-.32 0-.67.02-1.04.09l-1.1.16a1.4 1.4 0 0 1-.97-.38c-.1-.1-.2-.13-.25-.08-.09.05-.1.13-.02.24.03.04.1.12.16.22.2.22.35.42.48.6l.63.92c.1.17.21.23.3.17.06-.05.06-.15 0-.29-.2-.32-.14-.6.18-.82.38-.28.88-.43 1.47-.46-.52 1.1-.8 2.1-.86 3-.77-.2-1.34-.16-1.72.1-.24.18-.4.43-.44.8-.04.34.05.7.31 1.06.27.37.62.6 1.05.69.44.08.83 0 1.17-.25.44-.3.73-.87.88-1.71 0 0-1.02-.39 0 0zm7.25 7.91c.07-.36.07-.7-.03-1.05-.1-.35-.3-.8-.63-1.38a4.06 4.06 0 0 1-.55-1.38c-.03-.33.07-.62.3-.86.21-.25.52-.37.89-.38.36-.01.71.13 1.04.43.37.35.57.79.6 1.32.04.53-.05 1.09-.25 1.64-.07.18-.07.31-.01.36.08.08.15.08.23 0 0-.02.04-.06.1-.13l1.23-1.59c.13-.16.16-.28.1-.34-.08-.06-.18-.05-.33.02-.12.06-.25.11-.35.12-.15-.37-.3-.71-.5-1-.19-.3-.4-.56-.63-.76-.4-.39-.81-.61-1.2-.7-.4-.1-.82-.1-1.24-.02-.43.1-.81.33-1.15.7-.35.38-.54.83-.55 1.38-.02.53.24 1.24.78 2.12.34.56.52.99.55 1.29a.93.93 0 0 1-1 1.04c-.32 0-.6-.13-.87-.37-.26-.25-.45-.6-.54-1.04-.09-.44-.09-.83.02-1.19.06-.2.1-.33.1-.38 0-.05-.03-.1-.1-.14-.06-.07-.13-.07-.2 0l-.1.16-.88 1.24c-.1.14-.1.25-.04.3.05.06.14.06.26 0 .1-.03.18-.05.24-.05.36.65.69 1.11.99 1.4.57.52 1.15.79 1.76.79.6 0 1.1-.2 1.5-.64.21-.24.37-.55.46-.9 0 0-.07.36 0 0zm6.85 2.9l.56-.85c.44-.64.75-.95.96-.94.2.01.4.07.56.19.1.07.2.07.25 0 .06-.1.03-.19-.09-.28l-.54-.32c-.31-.2-.56-.34-.75-.48l-1.38-.99c-.11-.07-.2-.07-.26 0-.06.09-.02.19.11.3.25.17.4.35.4.53.02.16-.05.38-.2.63l-1.34 2a4.4 4.4 0 0 1-.3-.18 1.43 1.43 0 0 1-.53-.6c-.12-.23-.12-.5-.05-.8.08-.32.28-.8.6-1.46.25-.53.34-.94.29-1.25l-1.74-1.23c-.23-.16-.37-.19-.44-.1-.05.08-.02.17.12.28.25.19.4.42.41.69.04.26-.07.71-.3 1.32-.25.67-.31 1.19-.16 1.57.13.36.38.72.76 1.05-.4-.2-.78-.37-1.13-.43a2.1 2.1 0 0 0-1.07.05 1.5 1.5 0 0 0-.81.63 1.5 1.5 0 0 0-.15 1.48c.2.54.66 1.05 1.36 1.52.2.14.45.3.73.46.63.37 1.38.84 2.23 1.42.17.12.29.14.35.04.05-.09.02-.17-.1-.26-.32-.23-.47-.45-.41-.7.06-.24.37-.78.94-1.63zm4.95 6.95c-.06-.12-.05-.28.02-.5.07-.2.3-.75.71-1.64l1.24-2.57c.24-.54.46-.88.66-1 .2-.13.45-.11.78.03.12.06.2.04.24-.05.06-.1 0-.2-.16-.26l-.14-.07a25.75 25.75 0 0 1-2.34-1.04c-.44-.23-.9-.47-1.42-.7l-1.81-.85-1 1.3c-.06.07-.1.13-.12.18-.05.09-.01.15.08.2.07.02.16 0 .27-.09.77-.63 1.8-.65 3.09-.05.34.16.57.32.68.47.1.16.14.32.1.47a19.77 19.77 0 0 1-1.15 2.48c-.5-.24-.84-.5-1-.77a1.18 1.18 0 0 1-.12-.93c.02-.2.01-.31-.06-.35-.1-.04-.17-.03-.22.08-.02.02-.02.04-.03.09a16.96 16.96 0 0 1-1.06 2.25l-.06.06c-.03.09 0 .15.09.2.07.03.15 0 .23-.1l.39-.3a.94.94 0 0 1 .63-.22c.22 0 .43.07.67.19l.38.17a22.5 22.5 0 0 1-1.26 2.53c-.3-.1-.6-.2-.9-.33a2.92 2.92 0 0 1-1.13-.82c-.22-.3-.39-.77-.5-1.43-.02-.12-.06-.2-.11-.22-.1-.05-.16-.02-.21.07l-.4 1.72 4.04 1.9 1.19.58c.13.07.2.05.26-.06.03-.08 0-.15-.1-.21a1.3 1.3 0 0 1-.45-.41s.05.12 0 0zm13.29 3.91c.01-.08-.04-.14-.14-.2a1.29 1.29 0 0 1-.43-.37 4.37 4.37 0 0 1-.43-1.18c-.15-.63-.36-1.6-.64-2.93l-.67-3.33-.39-.1-1.3 2.05-1.45 2.25c-.15-.88-.29-1.72-.4-2.51-.22-1.53-.33-2.39-.37-2.58l-.4-.08-1.46 2.27-1.47 2.22a8.1 8.1 0 0 1-1.02 1.36c-.2.2-.37.32-.5.36a.91.91 0 0 1-.41.05c-.16-.03-.25.01-.26.1-.03.1.03.17.17.2l.3.05.94.17.9.24c.17.03.26 0 .3-.09.01-.1-.08-.16-.26-.22a.62.62 0 0 1-.33-.23c-.1-.12-.14-.28-.09-.48.03-.14.08-.26.16-.4.05-.13.38-.62.9-1.46.54-.85.97-1.5 1.29-1.96.49 2.56.69 4.05.6 4.5a.67.67 0 0 1-.27.37c-.15.09-.33.1-.57.05-.13-.03-.2 0-.23.1-.01.08 0 .13.04.15l.61.16 1.08.2 1.27.32c.28.07.44.1.49.09.05-.02.07-.05.1-.1.02-.09-.03-.15-.15-.2a.98.98 0 0 1-.44-.27c-.07-.1-.15-.37-.22-.8-.08-.43-.13-.73-.18-.9l1.88-2.9.46 2.21c.25 1.2.39 1.9.41 2.1.04.18.04.33.01.44-.03.15-.11.24-.26.32-.16.06-.3.08-.44.07-.17-.03-.26.01-.29.1-.03.11.04.19.17.2.21.06.53.12.92.18l.67.14 1.36.33c.18.04.28.05.34.05.05-.01.08-.05.1-.1 0 0-.02.07 0 0zm7.37-.92l.02-.02a3.75 3.75 0 0 0 1.18-2.72 3.38 3.38 0 0 0-1.07-2.7 3.83 3.83 0 0 0-2.65-1.02 3.82 3.82 0 0 0-2.89 1.18 3.82 3.82 0 0 0-1.18 2.73c0 .67.16 1.29.5 1.86.33.57.77 1.02 1.32 1.32.56.3 1.21.46 1.96.47 1.12 0 2.06-.36 2.81-1.1zm0 0c-.65.65-.12.12 0 0zm8.9-.1c.18-.04.25-.1.23-.21-.01-.11-.1-.16-.25-.14a.94.94 0 0 1-.54-.07.77.77 0 0 1-.35-.4c-.11-.2-.19-.51-.28-.97-.16-1.12-.33-2.09-.45-2.91a8.68 8.68 0 0 1-.17-1.54.9.9 0 0 1 .18-.49c.11-.12.28-.21.5-.28a1 1 0 0 0 .25-.1.1.1 0 0 0 .03-.12c-.01-.11-.09-.16-.22-.13l-.22.04a76.03 76.03 0 0 1-5.9.95 27.37 27.37 0 0 0 0 2.36c.03.1.08.15.17.13.07 0 .13-.07.17-.2.21-.63.43-1.08.65-1.37.22-.29.47-.5.75-.65.28-.14.71-.26 1.3-.35.26-.04.43-.02.54.07.1.08.19.37.27.89l.55 3.33c.12.78.2 1.29.2 1.53 0 .23-.05.39-.14.5-.07.11-.25.2-.47.27-.2.06-.32.1-.36.14-.05.04-.06.08-.05.15 0 .1.1.14.25.11.06 0 .2-.04.37-.08.5-.1.88-.19 1.16-.22l1.83-.24s-.17.03 0 0zm7.09-2.25c.2-.07.29-.15.25-.25-.02-.1-.12-.14-.23-.1l-.14.05c-.35.12-.61.06-.78-.15a9.98 9.98 0 0 1-.83-2.18 29.92 29.92 0 0 1-.98-3.36c-.01-.34.15-.56.5-.7.2-.07.3-.15.27-.24-.04-.11-.14-.13-.32-.08l-1.63.6-.78.2c-.43.11-.7.19-.85.24-.15.04-.22.12-.18.24.03.06.06.1.12.1.05.01.15-.01.33-.07.23-.06.42-.09.54-.06.13.02.24.1.34.25.12.14.24.41.35.79l.62 1.96c-.66.21-1.12.27-1.37.13a1.34 1.34 0 0 1-.58-.66c-.07-.14-.15-.2-.22-.17-.07.02-.09.05-.1.1-.01.06.08.37.24.96l.51 1.7c.04.13.12.18.23.15.06-.02.07-.08.07-.19-.03-.4 0-.68.07-.86a.88.88 0 0 1 .39-.44c.19-.12.49-.25.87-.36.52 1.6.77 2.49.74 2.62-.03.14-.3.28-.83.45a3.3 3.3 0 0 1-1.76.18 3.75 3.75 0 0 1-1.24-.7c-.07-.05-.14-.08-.17-.06-.08.02-.09.08-.07.19l.04.07.77 1.5 5.8-1.85s-.2.07 0 0zm7.77-4.4a1.94 1.94 0 0 0-.84-2.35c-.31-.2-.64-.3-1-.31-.36-.01-.86.05-1.5.16-.66.14-1.16.16-1.48.1a1.05 1.05 0 0 1-.73-.56 1.23 1.23 0 0 1-.09-.97c.11-.35.37-.64.74-.84.46-.25.93-.31 1.45-.17.52.13 1.02.39 1.47.77.16.11.28.16.35.11.1-.05.11-.11.06-.21l-.1-.14-1.1-1.68c-.12-.17-.21-.23-.29-.19-.08.05-.1.15-.08.32l-.01.38c-.4 0-.77.06-1.11.14-.34.09-.65.2-.92.36-.48.27-.82.58-1.04.92-.21.35-.35.74-.4 1.18-.05.43.05.87.3 1.32.24.44.61.76 1.13.95.5.2 1.25.17 2.26-.07.64-.14 1.1-.19 1.4-.12.27.07.49.22.6.43.17.27.17.55.08.85-.13.3-.32.53-.65.7-.32.18-.71.24-1.15.19a2.28 2.28 0 0 1-1.11-.4l-.34-.2c-.04 0-.09 0-.17.03-.08.04-.1.12-.05.2l.11.16.9 1.23c.1.13.19.17.27.12.06-.04.1-.12.09-.25 0-.1 0-.19.02-.25a5.45 5.45 0 0 0 1.64-.49c.68-.37 1.1-.85 1.3-1.42 0 0-.2.58 0 0zm8.12-5.3c.13-.09.16-.18.09-.27-.05-.04-.08-.07-.12-.07a.7.7 0 0 0-.22.1c-.18.12-.32.17-.45.16-.14 0-.3-.1-.51-.28-.2-.18-.42-.44-.67-.76l-1.8-2.35c-.33-.4-.6-.68-.85-.81a1.86 1.86 0 0 0-.84-.25c-.3 0-.66.08-1.05.25-.36.17-.79.43-1.21.76-.56.45-.96.91-1.18 1.4-.24.47-.3.94-.18 1.4.11.46.46 1.07 1.06 1.82.9 1.15 1.44 1.87 1.62 2.18.19.3.27.57.24.78a.88.88 0 0 1-.23.51c-.1.1-.12.17-.07.24.07.09.17.07.33-.05l.28-.26a10.24 10.24 0 0 1 1.07-.83c.16-.1.29-.18.35-.25.13-.1.17-.2.11-.29-.07-.08-.2-.06-.4.06-.24.16-.5.16-.8 0a5.2 5.2 0 0 1-1.18-1.2 15.5 15.5 0 0 1-1.58-2.3c-.24-.46-.32-.87-.24-1.23.09-.36.33-.7.76-1.04.43-.34.84-.53 1.24-.55.39-.04.72.05 1.03.28.3.22.77.74 1.43 1.57.4.52.75 1 1.05 1.45.32.45.47.79.47 1 .01.23-.09.42-.28.6-.13.1-.15.19-.08.25.06.1.16.07.31-.04.17-.12.38-.3.62-.54l.44-.37 1.44-1.06s-.14.1 0 0zm3.73-3.95a3.86 3.86 0 0 0 1.02-2.9 3.7 3.7 0 0 0-1.3-2.65 3.45 3.45 0 0 0-2.75-.95c-.99.12-1.81.58-2.5 1.36a3.89 3.89 0 0 0-.99 2.94 3.8 3.8 0 0 0 3.04 3.53c.65.13 1.26.07 1.87-.16.56-.22 1.1-.59 1.56-1.11-.14.17-.55.63 0 0l.05-.06zm6.75-9.79c.09-.16.09-.26 0-.32-.1-.06-.18-.02-.27.12-.13.19-.27.3-.4.37a.96.96 0 0 1-.54.01c-.2-.05-.5-.19-.9-.42l-2.54-1.52a9.9 9.9 0 0 1-1.27-.88.79.79 0 0 1-.25-.44.94.94 0 0 1 .1-.56.86.86 0 0 0 .08-.27c0-.04-.03-.07-.06-.1-.1-.06-.18-.03-.25.1l-.11.2c-.19.4-.46.86-.8 1.45-1 1.67-1.76 2.9-2.27 3.66 1 .9 1.6 1.4 1.8 1.53.09.06.17.04.21-.04.04-.06.02-.15-.04-.26a4.5 4.5 0 0 1-.63-1.38 2.46 2.46 0 0 1-.02-.99c.07-.3.27-.72.58-1.24.13-.21.25-.33.39-.36.1-.02.4.1.86.35l2.89 1.74a12 12 0 0 1 1.3.84c.18.14.28.28.29.42.04.13 0 .31-.1.55a1.2 1.2 0 0 0-.1.36c-.02.06 0 .1.06.12.08.06.16.02.26-.1l.17-.34.56-1.05 1-1.55s-.09.16 0 0zm3.6-8.37c.07-.15.05-.24-.06-.28-.04-.02-.1-.02-.12 0-.04.02-.08.08-.15.2-.09.18-.2.3-.32.35-.12.07-.31.07-.57.02-.28-.06-.6-.17-.98-.32l-2.71-1.13c-.5-.2-.88-.29-1.15-.29-.28 0-.57.08-.85.22-.27.14-.53.4-.77.73-.25.34-.48.76-.67 1.27a4 4 0 0 0-.35 1.8c.05.53.24.96.56 1.3.34.35.93.69 1.83 1.06 1.34.53 2.17.9 2.49 1.07.3.17.5.35.6.55.08.2.1.38.05.56-.04.13-.02.22.06.24.1.03.18-.02.25-.2l.13-.38a7.4 7.4 0 0 1 .68-1.63c.06-.16.05-.27-.04-.3-.1-.05-.21.03-.32.23-.13.27-.36.4-.7.4-.32.01-.87-.15-1.61-.45-1.27-.5-2.1-.9-2.53-1.18-.43-.3-.7-.6-.82-.95-.1-.35-.05-.78.16-1.3.2-.5.46-.86.77-1.08a1.4 1.4 0 0 1 1.05-.27c.37.03 1.03.25 2.02.64.6.25 1.14.49 1.62.72.5.24.8.45.91.64.11.19.14.4.04.66-.04.13-.02.23.07.26.12.04.19-.02.26-.2.08-.19.16-.44.27-.77.06-.21.13-.4.2-.55l.7-1.64s-.06.14 0 0zm-5.25-8.53c-.02-.1-.02-.25 0-.44 0-.02.03-.05.03-.1.07-.34.22-.58.45-.72.23-.15.89-.4 1.93-.74a96.22 96.22 0 0 0 5.1-1.79l.02-.38c-2.14-1.03-3.86-1.8-5.12-2.34a9.85 9.85 0 0 1-1.22-.58c-.27-.16-.43-.3-.5-.44a1.5 1.5 0 0 1-.22-.53c-.01-.09-.06-.14-.14-.14-.12-.01-.18.06-.18.19v.17c.03.26.03.54.02.83l-.08.71-.06.46c-.01.15.04.23.14.24.1 0 .17-.07.18-.2.03-.2.1-.36.22-.51a.55.55 0 0 1 .48-.21c.29.01.85.21 1.7.57l-.08 1.74c-.01.13-.01.32-.04.55-.32.14-.7.27-1.1.38-.4.11-.67.15-.82.15-.32-.02-.48-.26-.5-.71 0-.12-.04-.19-.13-.19-.1 0-.16.07-.16.25-.02.1-.02.3 0 .61 0 .41 0 .74-.03 1 0 .25-.04.58-.1.96-.04.28-.05.46-.05.56l-.05.1-.05.36c-.06.43-.11.76-.18 1-.03.19-.1.44-.19.76-.1.4-.18.68-.2.86a7.15 7.15 0 0 0-.22 1.76c.03.42.17.81.45 1.15.27.35.62.57 1.03.66.5.1.94.01 1.36-.28.4-.3.76-.82 1.08-1.53.1 1.35.57 2.11 1.42 2.3.5.1.93 0 1.3-.34.39-.33.66-.82.8-1.49l.16-.9c.07-.64.2-1.33.36-2.04.1-.4.12-.64.12-.73 0-.09-.02-.14-.1-.16-.06 0-.11 0-.14.04a.8.8 0 0 0-.12.27.84.84 0 0 1-.17.34.68.68 0 0 1-.32.13c-.14 0-.46-.03-.93-.11-.48-.09-1.1-.21-1.9-.39l-2.5-.6a1.25 1.25 0 0 1-.56-.21.63.63 0 0 1-.2-.3s.03.09 0 0zm-.3 2c.12-.04.5.01 1.17.16l1.9.47c-.04.21-.06.37-.1.5-.1.54-.35.9-.72 1.11-.37.2-.8.24-1.3.13-.47-.1-.83-.31-1.04-.63-.23-.33-.29-.74-.16-1.26.07-.3.15-.45.26-.48m-15.69-42.57c-.5-.38-.68-.91-.6-1.6.08-.7.45-1.46 1.12-2.3a4.56 4.56 0 0 1 2-1.62c.67-.2 1.22-.14 1.67.22.45.37.67.9.6 1.56a4.54 4.54 0 0 1-1.13 2.34c-.73.93-1.42 1.48-2.07 1.65-.65.17-1.17.09-1.59-.25m20.36 45.5c-1.07-.23-1.47-.97-1.2-2.21a36 36 0 0 1 2.86.63c.04.32.02.58-.02.8-.06.3-.24.53-.51.69-.3.17-.66.2-1.13.1m-46.03-54.9c-.6-.02-1.1-.34-1.43-.93-.37-.6-.5-1.43-.48-2.51.04-1.12.24-1.95.65-2.5.38-.57.88-.84 1.46-.82.58.02 1.05.31 1.42.9.36.57.52 1.4.5 2.53-.04 1.19-.26 2.05-.68 2.57-.41.51-.9.77-1.44.75m53.95 43.3c0 30.49-24.76 55.3-55.19 55.3-3.85 0-7.6-.4-11.24-1.15a55.37 55.37 0 0 1-43.98-54.15c0-30.49 24.77-55.3 55.22-55.3 30.43 0 55.19 24.81 55.19 55.3zm-111.22 0c0 30.93 25.13 56.1 56.03 56.1 30.88 0 56.01-25.17 56.01-56.1 0-30.94-25.13-56.1-56-56.1-3.25 0-6.43.27-9.53.8-4.03 0-6.48 0 0 0a56.18 56.18 0 0 0-46.51 55.3zm56.03-56.98c31.35 0 56.87 25.56 56.87 56.98 0 31.41-25.52 56.97-56.87 56.97a57.04 57.04 0 0 1-56.91-56.97c0-31.42 25.52-56.98 56.91-56.98 0 0-31.34 0 0 0zm19.42 82.79c-.1-.1-.18-.19-.05-.12-.42-.47-.84-1.3-.54-1.93l.17-.27c.48.07.96.11 1.44.14.15.38.05.85-.4 1.07-.49.24-.44.73-.18 1.1h-.44m1.26 0c0-.16.01-.32.1-.47.3-.52.72-.52.99-.35v.83zm-3.22-.85l-.01-.01-.1-.09a3.83 3.83 0 0 1-1.26-1.95c.6.17 1.21.32 1.83.43-.4.64.62 1.9 1.35 2.48h-2.1c-1.04-.19-2.18-.2-3.42 0h-5.9v-.07c.02-.02.02-.04.02-.06l-.1.13h-4.32c-.56-.45-1.26-.95-.8-1.7.3-.54 1.77-.96 2.44-1.13.1-.02.2-.05.31-.1a.55.55 0 0 1-.21-.15c-.18-.25.18-.92.31-1.14.27-.53.57-1.03 1-1.49.23.16.44-.02.48.22.08.36.08.8.26 1.3.05.24.15.43.22.6.05 0 .11 0 .16-.02l-.05-.17c-.1-.37-.54-1.54-.36-1.78.33-.41 1.07-.16 1.42-.07.5.1.91.22 1.38.43.87.35-.42 1.52-1.16 2.05-.18.11-.5.33-.75.33l-.03.17c.07-.02.15-.06.24-.06.16-.05.34-.07.53-.07.15-.1.31-.15.52-.17.82-.1 1.58.5 2.11 1.02.37.22.73.47 1 .75.6-.09 1.37-.16 2.25-.12l-.16-.08a5.1 5.1 0 0 1-2.1-1.92.93.93 0 0 0-.51-.1c.08.29-.06.59-.33.73a.63.63 0 0 1-.84-.28.62.62 0 0 1 .2-.8.47.47 0 0 1 .14-.1c.53-.2 1 .12 1.25.4a2.56 2.56 0 0 1-.28-1.03c.84.44 1.72.83 2.63 1.14-.36.89.47 1.83 1.38 2.17.45.08.9.18 1.36.31zm-5.25-.27l.16-.03c-.1-.07-.24-.14-.38-.22 0 .02.03.04.04.05l.18.2s-.05 0 0 0zm-10.22.89c.49-.1.78.03 1.02.24h-1.4a.49.49 0 0 1 .38-.24m27.07-29.86a23.53 23.53 0 0 1 1.88-4.47l.48-.74v7.45zm-2.27-2.37c-.02.08-.03.12-.06.14l-2.4-2.28c.27-.15.66-.23.85-.3.4-.15 1.71-1.01 1.88-.22.06.22-.05.73-.14 1.01-.16.52-.08 1.17-.13 1.65m.41-.74c.03-.4-.1-1.63.27-1.93.41-.32.75 0 1.37.55.59.5.22.24-.05.88s-.14 1.49-.47 1.55c-.47.12-.28.07-.95-.06-.55.14-.18-.68-.17-1m.45-2.4a.4.4 0 0 1-.57.08.42.42 0 0 1-.09-.58c.15-.18.4-.22.58-.08a.4.4 0 0 1 .08.57m-51.86-10.17a8.22 8.22 0 0 0-.42-.38c.34.09.67.14 1.02.18l-.6.2m6.17 40.6c-.67-.74-2.85-2.41-3.52-3.89.3-.63.52-1.28.67-1.95a10.2 10.2 0 0 1 3.22-.7c1.85-.14 3.77-1.22 5.41-1.63 2-.57.82 5.73-.7 9 .17.12.34.27.52.48.6.7 1.91 1.6 3.2 1.21h-.26c.9-.36 1.07-1.73 1.04-2.37-.07-1.16-4.05-4.05-1.3-5.65 2.73-1.62 3.14 4.1 4.01 4.84.5.42 1.45 1.51 2.27 1.03-.01.06-.07.1-.12.15 1.25-.53 1.7-2.06 1.73-2.98.01-.5.11-.86.28-1.12a7.43 7.43 0 0 1-1.98-.4c-.87-.33-3.49-1.42-3.93-2.38-.45-.96 1.2-2.96 1.74-3.6a21.5 21.5 0 0 1 4.34-4.4c.67.68 1.51.25 1.48 1.06-.01 1.25-.23 2.71-.01 4.55.17 1.84 1 3.04-.33 4.74l-.09.08c.26.23.31.82-.04 2.17a3.7 3.7 0 0 1-2.8 2.56c1.13-.06 2.12-.41 2.51-.98.47-.7 1.13-2.59 2.04-2.34.4.09 1.4.88-.27 2.84-.55.66-1.9 1.09-3.23 1.15.94.16 1.6.2 1.99.15 1.27-.18 1.84-.94 2.35-.77.51.2.46 1.08-.6 1.63-1.06.54-3.58.53-6.45-1.4h-.27c1.96 1.16 3.9 2.08 4.69 2.22 1.27.25 2 .23 2.25.54.26.3.38 1.27-1.24 1.15-1.25-.1-3.78-1.05-6.08-3.92-.16-.02-.3-.04-.43-.08a46.63 46.63 0 0 0 4.9 4.2h-2.16a15.7 15.7 0 0 1-2.95-4.26 2.3 2.3 0 0 1-.6-.33c.03.25-.06.5-.21.73.35 1.49.5 2.76.52 3.87h-.9c.13-1.2.18-2.54.23-3.7-.07.08-.16.18-.27.27.03 1.43-.1 2.51-.36 3.43h-1.18c.47-.91.83-1.97 1.26-3.23l-.23.14c-.37 1.28-.9 2.3-1.45 3.09h-1.29c.4-.3.73-.62 1.08-1.08-.67.5-1.52.9-2.46 1.08h-2.18c-1-.34-1.04-1.24-.85-1.49.56-.76 1.69.13 3.13.1a4.09 4.09 0 0 0 3-1.1 3.68 3.68 0 0 1-4.21.07c-.27-.2-.48-.38-.66-.53a.43.43 0 0 0-.08.1c-1.63 1.77-3.36-1.45-4.17-2.35m11.9 5.2a27.85 27.85 0 0 0-.61-4.6 30.57 30.57 0 0 0 3 4.6h-1.28l-.21-.42c.05.15.06.28.08.42zm18.64-48.26c1.58 1.2 4.53-1.1 6.7-3.18h3.62c.36 1.58.26 3.25-1.46 4.64-2.92 2.34-8.1 2.73-8.86-1.46m5.4-3.18c-2.06 1.76-4.41 3.08-5.65 2-.71-.67-1-1.34-1.17-2h6.82m-6.84 2.09c.42.58-.62 1-1.24 1.44-1.29-1.26-1.15-2.3-2.09-3.53h2.7c.12.74.25 1.57.63 2.09m-27.84 6.95a1.07 1.07 0 0 1-1.28-.82c-.14-.58.23-1.15.81-1.29.58-.12 1.15.24 1.29.82.14.58-.23 1.15-.82 1.29m6.44-9.04c-.07 2.04-4.69 1.08-6.57 0h6.57m9.9 7.81c-1.81-.15-1.96-1.7-2.25-4.48-.14-1.15-.4-2.3-.48-3.33h9.14l.47.66c1.7.85-1.1 2.13-1.85 2.84-.94.95-3.44 4.42-5.03 4.31m-.04 10.75c-.24-1.27-1.38-5.39-.62-6.16 1.23-1.28 3.62-.2 4.85.23.9.28 1.74.6 2.58.97v4.94c-1.05.69-2.19 1.33-3.08 1.83-.82.4-1.9 1.39-2.6.64-.79-.79-.88-1.13-1.13-2.45m-4.6 1.9c-.9-.25-3.22.6-3.75-.3-.52-.93.93-3.07 1.43-3.76a21.16 21.16 0 0 1 3.91-4.79c.71.65 1.53.13 1.56.95.1 1.24 0 2.7.4 4.52.34 1.84.86 1.35-.3 3.16-.57.9-2.55.38-3.25.21m3.58-9.07c-.78.14-1.5-.36-1.66-1.12-.14-.76.37-1.5 1.13-1.64.76-.15 1.5.36 1.64 1.12a1.4 1.4 0 0 1-1.11 1.64m-15.08 14.3c-.93-.07-1-.87-1.16-2.3-.17-1.34-.66-2.7.46-3.2 1.07-.53 2.56.33 3.06.63.75.42.45.25 1.15 1.2.9.45-.55 1.1-.93 1.46-.49.5-1.76 2.27-2.58 2.22m1.9-.7c.8-.48 1.43-1.42 2.1-1.99.93-.87 2.06 3.84 1.7 5.19-.35 1.18-1.88.11-2.46-.11-.7-.28-3.43-.7-2.72-1.93.22-.36.93-.88 1.39-1.15m-1.36 7.45c-.4-.4-.44-.58-.57-1.25-.14-.65-.7-2.76-.32-3.16.63-.66 1.86-.1 2.49.12.81.25 1.52.55 2.3.98 1.47.77-1.18 2.18-2.55 2.99-.43.2-.98.7-1.35.32m-2.92-.28c-.4-.11-1.32.18-1.75 0v-1.2c.19-.36.41-.7.55-.88.57-.9 1.16-1.71 2-2.45.37.32.78.06.8.48.06.63 0 1.39.21 2.32.18.93.44.69-.15 1.62-.3.46-1.32.19-1.66.1m.68-6.14a18 18 0 0 1-2.42-.65v-4.07c.95-.76 2.2-1.9 2.24-.9.08 1.4 1.03 4.72.18 5.62m-.06 1.49c-1.58.65-1.8 1.66-2.37 2.62v-4.4c.84.2 1.36.34 2.3.59-.36.4-.43 1.04.07 1.19m1.77-.84a.7.7 0 0 1-.56.84.7.7 0 0 1-.85-.57.72.72 0 0 1 .57-.84c.38-.07.77.18.84.57m32.68-9.86c-.69-.06-.9-.52-1.03-1.34l2.82-2.6v2.64c-.57.64-1.28 1.34-1.79 1.3m1.79 1.95c-.88-.3-1.7-.74-1.27-1.47.2-.34.8-.81 1.27-1.1v2.57m-11.58 14.19c-1.95-.75-4.62-1.9-3.42-3.6.47-.65 1.94-1.55 2.88-2l.54-.3zm3.87-9.12c1.55-1.19 2.73 4.29 2.71 7.93.16-.71.77-1.32 2.08-1.54 1.36-.12-.5-3.47-1.88-5.21l.05.04a4.67 4.67 0 0 0 2.75.68c-.5-.99-.33-2.02.42-2.59a2.5 2.5 0 0 1-.23-.82c-.13-.65-.7-2.75-.32-3.15.52-.55 1.46-.26 2.12-.02v8.62c-1.57-.26-3.11-1.33-4.04-2.11 1.02.93 2.86 2.75 4.04 4.6v5.16c-.23.15-.49.26-.74.3l-10.02-9.25c1.09-.85 2.08-1.92 3.06-2.64m3.54-.54c-.46-.12-1.65.32-1.93-.15-.26-.48.48-1.56.74-1.93.56-.9 1.16-1.7 2-2.44.37.32.78.06.81.48.05.63 0 1.39.2 2.32.19.93.44.68-.16 1.6-.28.47-1.3.2-1.66.12m.7-6.15a3.3 3.3 0 0 1-.93-.2l1.26-1.18c0 .6-.07 1.11-.34 1.38m-3.16 5.03c-.42.37-.9-.9-1.21-2.05l3.2-2.95 1.04.28c-.35.39-.43 1.04.08 1.19-2.1.86-1.8 2.36-3.11 3.53m3.47-4.1a.7.7 0 0 1 .56-.84c.38-.08.78.17.84.57.08.39-.19.77-.56.84a.72.72 0 0 1-.84-.57m-8.4 5.51l2.68-2.5c.12.22.25.46.44.77 1.62 1-1.3 2.01-2.08 2.66-1.02.86-3.8 4.09-5.4 3.83-1.8-.3-1.82-1.88-1.85-4.66-.09-2.65.08-1.18 2.35-1.96 1.5-.58 2.85-1.84 3.85-2.35zm-4.8 18.75c-.7-.87-.45-1.94-.59-3.28-.12-1.3-.88-5.49-.06-6.19 1.34-1.15 3.64.14 4.82.67.22.08.42.18.61.26v4.8c0 .86.12 1.67.35 2.46-.66.37-1.3.7-1.85.95-.86.33-2.63 1.12-3.28.33m-8.85-15.95c-1.23-.77-3.8-1.2-3.21-3.28.33-1.14 1.62-1.37 2.8-2 1.83-.95 6.35-.55 6.27 1.82-.12 2.74 1.89 4.16.07 5.78-.12.12-5.15-1.85-5.93-2.32m-1.1 11.53c-1.27.96-4.13-3.66-3.38-5.19 1.85-3.84.86-4.55 1.54-5.83 1.04-1.97 2 .1 3.04.44 2.42.73 3.36 1.12 5.54 1.93-.77.7-1.03 1.95-.07 2.32-4.23 1.3-3.92 4.27-6.67 6.33m10.25-7.64c.08.78-.49 1.47-1.27 1.54a1.4 1.4 0 1 1 1.27-1.54m-14.05 5.68c1.12 1.53-1.95 1.4-2.94 1.71-1.06.35-3.9 1.77-5.6 1.75.04-.28.05-.55.05-.83V85.7c.31.06.82.45 2.04.51 2.33.02 4.88-1.4 5.48-.44.94 1.38.56.84.97 3.14m-4.7 13.2c.7.97.35 1.72-.54 2.29h-9.78c0-.83.45-1.6.75-2.66.1-.34.23-.91.4-1.56a13.68 13.68 0 0 0 3.9-3.8c.88.56 1.65 1.46 2.17 2a22.58 22.58 0 0 1 3.1 3.72m24.51-4.38c.1-.2.45-.54.69-.72.58.7 1.28 1.32 2.12 1.9-.34.12-.91-.17-1.16-.25-.4-.1-1.97-.2-1.64-.93m-1.1-1.48c-.18-.76-.05-.35.56-.7.06-.03.11-.08.17-.12.24.47.53.93.88 1.37-.28.35-.58.7-.84.7-.53 0-.63-.46-.78-1.25m-.5-.14c.12.8.77 1.1.33 1.66-.02.05-1.58-.25-1.83-.33-.4-.16-1.16-.13-1.09-.78.02-.34.37-.48.69-.73.48-.36 1.8-.5 1.9.18m-1.17 4.7c-.33.35-1.4-.82-1.28-1.3.34-1.2 0-1.36.13-1.76.2-.63.58-.09.9-.05.73.09 1.04.14 1.71.26-.19.24-.2.6.1.67-1.14.6-.89 1.43-1.56 2.19m2-3.05a.41.41 0 1 1 .24.8.4.4 0 0 1-.5-.29.42.42 0 0 1 .27-.5m18.9-35.83c.69 0 1.26.57 1.26 1.28 0 .7-.57 1.27-1.27 1.27-.7 0-1.25-.57-1.25-1.27 0-.7.55-1.28 1.25-1.28m-29.56 37.35a1.27 1.27 0 1 1 .02-2.55 1.27 1.27 0 0 1-.02 2.55m31.71-37.9c.47 0 .88.39.88.88 0 .47-.4.86-.88.86a.88.88 0 0 1-.88-.86c0-.5.4-.89.88-.89m-40.18 38.11a1.64 1.64 0 1 1 3.28 0 1.64 1.64 0 0 1-3.28 0m6.83-4.15c.5 0 .87.4.87.88s-.38.88-.87.88a.88.88 0 1 1 0-1.76m-5.3-2.97a.87.87 0 1 1 1.75 0 .87.87 0 0 1-1.74 0m40.22-31.98c.4 0 .68.3.68.68 0 .37-.29.68-.68.68a.68.68 0 0 1 0-1.36"/></defs><g><g transform="translate(-7164 -20)"><use fill="#fff" xlink:href="#pygqa"/></g></g></svg>