<svg xmlns="http://www.w3.org/2000/svg" xmlns:xlink="http://www.w3.org/1999/xlink" width="85" height="83" viewBox="0 0 85 83"><defs><path id="kr62a" d="M7194.4 823.7l-.15.06-.92-1.9c.13-.1.25-.2.37-.25.27-.13.54-.15.79-.08.26.09.46.28.6.57.1.19.14.39.14.6-.01.21-.1.4-.27.58-.18.18-.37.31-.57.42m41.03 50.51c.6.52.97 1.02 1.1 1.48.12.48.04.87-.23 1.18-.27.3-.65.43-1.12.37a3.25 3.25 0 0 1-1.62-.88c-.64-.55-1-1.06-1.11-1.53-.1-.46-.01-.84.24-1.13.29-.32.67-.45 1.16-.36.49.08 1.02.37 1.58.87m-44.73 6.9c.24.06.45.16.64.29.04 0 .07.04.13.08l-1.18 1.75c-.16-.06-.3-.12-.4-.2a.99.99 0 0 1-.47-.64c-.06-.26 0-.53.19-.8.12-.17.27-.31.45-.42.19-.1.4-.12.64-.06m13.62-60.68a27.59 27.59 0 0 1-.3-2.05c.22-.1.39-.17.54-.19.2-.03.4.02.6.17.17.15.28.39.34.73.11.77-.29 1.21-1.18 1.34m-14.12 8.24a3.3 3.3 0 0 1-1.35-1.2 3.2 3.2 0 0 1-.73-1.69c-.01-.48.14-.84.48-1.09.33-.24.73-.28 1.19-.11.44.16.91.57 1.38 1.2.5.7.74 1.27.74 1.74-.01.47-.17.83-.5 1.05-.34.26-.75.29-1.2.1m53.9 26.19c-.21.06-.51.17-.91.31l-.87.3.06-1.4 1.72.79m-63.1 18.8c.23-.17.52-.21.87-.15-.03.55-.15.91-.37 1.06a.49.49 0 0 1-.38.1.46.46 0 0 1-.3-.18.56.56 0 0 1-.1-.41c.03-.17.12-.3.29-.43m3.4-1.9c.19.26.23.56.13.87-.11.33-.28.57-.52.73-.3.22-.69.26-1.17.12.07-.79.3-1.54.66-2.27.44.13.74.3.9.55m20.29-51.1c.39-.04.7.03.93.22.23.2.36.47.41.82.05.35-.01.64-.17.86-.15.23-.41.37-.8.43-.2.02-.33 0-.37-.06-.06-.06-.11-.34-.18-.81-.07-.38-.11-.83-.17-1.38l.35-.07m4.5 63.49c.43 0 .78.22 1.03.64.25.42.38 1.02.37 1.78 0 .78-.15 1.38-.42 1.78-.28.4-.61.6-1.04.6-.4-.01-.74-.21-1.02-.62-.26-.4-.39-1-.38-1.8 0-.83.15-1.45.44-1.83.29-.37.63-.55 1.01-.55m38.25-30.72a37.86 37.86 0 0 1-37.9 37.81 37.87 37.87 0 0 1-37.93-37.8 37.87 37.87 0 0 1 37.93-37.82 37.85 37.85 0 0 1 37.9 37.81zm-76.42 0a38.51 38.51 0 0 0 38.52 38.41 38.5 38.5 0 0 0 38.5-38.4 38.5 38.5 0 0 0-45.32-37.82 38.5 38.5 0 0 0-31.7 37.81zm73.6-4.2c-.18.08-.72.16-1.64.22-1.44.12-2.27.15-2.49.12-.24-.04-.37-.2-.4-.46-.02-.15-.05-.23-.14-.23-.06 0-.1.08-.1.2l.14 1.24.02.58.01.6c.02.13.06.18.15.18.04 0 .08-.03.09-.06v-.24c0-.17.01-.3.04-.39a.53.53 0 0 1 .24-.2c.12-.05.32-.08.6-.1l1.47-.11c.03.5 0 .83-.15.97a.95.95 0 0 1-.55.3c-.11.01-.16.06-.15.13 0 .03.02.06.05.08.04.01.27 0 .7-.02l1.27-.06c.1-.01.15-.05.14-.13 0-.04-.04-.08-.12-.09a1.44 1.44 0 0 1-.58-.19.74.74 0 0 1-.24-.34 3.4 3.4 0 0 1-.12-.67c1.22-.09 1.86-.11 1.94-.07.1.04.16.25.18.65.04.56 0 .98-.17 1.25-.15.26-.38.51-.69.73-.05.05-.07.08-.07.12 0 .05.04.08.11.07l.06-.01 1.18-.3-.32-4.31c-.02-.15-.06-.22-.13-.22-.08 0-.11.06-.1.15v.1c.03.26-.06.43-.22.5.03 0 .13-.05 0 0l-.01.01zm-2.82-6.8l-.01-.01a1.1 1.1 0 0 0-.87-.08c-.3.1-.51.28-.65.55-.15.28-.18.56-.08.86a1.13 1.13 0 0 0 2.16-.68c-.1-.29-.29-.5-.55-.65.05.03.22.12 0 0zm-3-9.35v.01c.08.2.11.33.1.42 0 .1-.07.19-.2.28-.13.1-.5.33-1.08.69l-1.75 1.02c-.36.22-.62.33-.79.33-.16 0-.3-.11-.44-.34-.05-.08-.12-.1-.17-.07-.08.05-.08.12-.01.22 0 .03.03.06.06.1a13.46 13.46 0 0 1 .96 1.55c.17.3.35.63.56.97l.74 1.22 1.1-.36a.68.68 0 0 0 .15-.06c.04-.04.06-.09.02-.15-.02-.04-.1-.06-.19-.05-.7.05-1.32-.35-1.84-1.2a1.15 1.15 0 0 1-.21-.56c0-.13.04-.24.12-.3.09-.09.4-.27.9-.58l.77-.44c.2.35.3.63.29.86a.91.91 0 0 1-.3.6c-.1.1-.15.17-.12.22.06.07.11.1.17.05l.06-.04c.06-.07.14-.13.23-.19.7-.42 1.13-.66 1.29-.71l.05-.02c.06-.04.06-.08.03-.15-.04-.05-.09-.07-.17-.04l-.36.03a.74.74 0 0 1-.46-.13 1.5 1.5 0 0 1-.32-.37l-.15-.26.4-.25c.48-.29.93-.53 1.35-.73.16.17.29.35.4.55.22.36.34.67.35.93 0 .26-.09.6-.28 1.04-.05.08-.05.14-.02.17.03.07.09.08.15.04l.92-.85-1.64-2.71-.46-.83c-.05-.08-.11-.1-.18-.06-.04.03-.06.08-.03.15zm-51.41 37.08c1-.13 1.98-.47 2.97-1.04-.21 1.02-.2 1.85-1.34 2.5a.65.65 0 0 1-.35.1 27.72 27.72 0 0 0 20.87 9.4 27.73 27.73 0 0 0 27.77-27.69c0-6.13-2-11.8-5.4-16.39v5.28l-.46.35a.91.91 0 0 1-.21.27c.21-.02.45-.02.67 0v2.46c-.12-.22-.18-.5-.1-.82.2-1-.86-1.34-1.67-1.16-.25.11-.5.21-.76.3.33-.04.92.14 1.01.37l.02.05c.38.2.7.51.8.91.04.16.05.3.04.43.17-.04.32-.02.43.17.14.21-.02.44-.08.71-.12.41-.83 1.04-1.18.7-.4-.4-.9-.3-.9-.8l.2-.13-.08-.09-.16.08c0-.21-.15-.42-.34-.33.3-.6.1-.97 0-1.4l-.18-.1.03.23c.08.43.1.83.06 1.28-.2 0-.25.2-.38.07l-.1-.1-.1.05c.05.07.1.14.1.19-.01.37-.54.54-.79.64-.3.15-.61.25-.95.33a.47.47 0 0 1-.17 0l-.22-.2c-.1-.32.01-.92.14-1.34a.38.38 0 0 1-.14-.05c-.2-.13-.32-.4-.15-.65.21-.32-.12-.58-.43-.63-.1 0-.2-.02-.31-.04.31.51.74 1.36.52 1.9-.04.08-.22.07-.5-.02l-2.88-2.73-.4-.37-.25-.17-3.09-2.04-.33-.23-2.13-1.41-.18-.13-.9-.58h-1.36v5.95a4.12 4.12 0 0 0-.31-.15c-.97-.38-4.77-.96-3.8-2.64.3-.5 1.3-1.24 1.93-1.61 1.13-.68 2-1.98 2.9-2.77.55-.5 1.15.34 1.61 1.63l.01-.01s1.62 1.33 3.07 1.85c1.96.2 6.52.03 8.35-5.23a.86.86 0 0 1-.3-.06h2.48c-.04.12-.12.34-.24.62.22-.1.52-.3.8-.56a27.75 27.75 0 0 0-21-9.6c-8.38 0-15.89 3.7-20.98 9.54h3.1c.9.7 1.76 1.65 2.73 2.64.22-.15.51-.23.84-.18a.78.78 0 0 1-.21-.65l-.2.07c-.67.16-1.07-.1-1.25-.44a.76.76 0 0 1 .28-1.44h.14c.09 0 .18.03.26.07l.08.05a.8.8 0 0 1 .45.09c.24.1.44 0 .6-.21h.72c-.04.36-.17.8-.4 1.16.33-.03.63.15.77.44.05-.26.06-.53 0-.78-.12-.26-.22-.53-.32-.82h.7c.17.3.35.62.55.93a.78.78 0 0 1 .71-.01.76.76 0 0 1 .27 1.14l.22.23.04-.07c.35-.5 1.05-.63 1.56-.28.04.04.09.06.12.1a10.7 10.7 0 0 1 2.38-2l.06-.04h4.1c.35 2.18.9 5.05 0 6-.08.1-3.77-.98-4.35-1.26-.63-.32-1.7-.48-2.22-1.04-.42.35-1.12.43-1.8-.11-.05-.05-.27-.23-.57-.56.03.6.25 1.88 1.57 2.19a.7.7 0 0 1 .35-.37c1.38-.82 2.04.38 2.79.55 1.78.36 2.45.59 4.06 1.02-.5.55-.6 1.44.1 1.64-2.92 1.19-2.5 3.27-4.32 4.9-.27.25-.56-.03-.85-.55.34 1.02.27 2.3-.44 4.16-.94-2.28-4.1-2.85-5.81-5.83a8.97 8.97 0 0 1-.59-1.3v-.32c0-.73-.12-1.43-.36-2.1.04-.7.17-1.42.44-2.2a1.17 1.17 0 0 1-.38-.11c-.28.34-.52.68-.7 1.01a8.28 8.28 0 0 0-.75-1c.3-.17.62-.32.96-.45a1.09 1.09 0 0 1-.18-.53 3 3 0 0 1-1.1.12c.34-.1.71-.17 1.1-.2v-.13c.04-.18.12-.37.22-.53a8.59 8.59 0 0 0-3.3-.17 8.23 8.23 0 0 0-3.45-1.26 27.6 27.6 0 0 0 .1 33.34s-1 .13 0 0zm9.43-30.1c-.33-.22-.3-.63-.25-.9-.17.31-.4.56-.7.71l-.34.12c1.72 3.82 4.57 4.9 5.75 6.9a23.24 23.24 0 0 1-.94-3.37c-.11-.5-.36-1.05-.58-1.57-.38-.1-.79-.3-1.16-.64-.64-.6-.9-2.02-.72-3.1a8.55 8.55 0 0 1-.72-.91l-.05-.1-.18-.26.02.12c.08.6-.01 1.38-.32 2a.7.7 0 0 0 .13.34c.15-.15.38-.2.57-.1.21.13.28.41.16.62-.11.2-.35.28-.56.2l-.02-.01c.05.04.1.07 0 0a.37.37 0 0 1-.09-.06zm34.58 1.07c-.4-.37-.46-.98-.16-1.44a1 1 0 0 1 .25-.24c-.53-.02-1.06-.33-1.2-.97a.87.87 0 0 0-.5-.67.76.76 0 0 1-.3-.07c-.4-.04-.85.1-1.18.35-.21.23-.44.48-.71.7l.1-.03c.67-.21 1.77-.23 2.25.4.7.92.02 1.65-.5 1.65-.51.01-1.03-.32-1.02-.93.02-.78-1.68-.53-2.26-.26-.19.13.45-.1.25.03.45-.08 1.1 0 1.35.42.4.64-.09 1.07-.43 1.03-.33-.03-.63-.28-.59-.67.07-.5-.47-.62-.86-.5-.2.11-.43.21-.66.3.32 0 .72.1.87.4.26.49-.13.78-.39.74-.23-.04-.45-.24-.4-.53.07-.38-.34-.5-.64-.41-.55.17-1.16.3-1.81.37 2.96.6 5.42 2.82 3.45 2.93 1.43-.01 2.94-.42 4.38-1.58.03-.11.06-.21.13-.34.1-.21.3-.45.58-.68 0 0 .4.38 0 0zm-3.68 3.93c-.2-.12-.36-.24-.42-.55-.02-.1.06-.2.15-.29a1.15 1.15 0 0 0-.28-.08c-.23.02-.47.02-.72.01.28.12.56.35.63.63.2.04.33.21.53.37l.07.05c0-.05.02-.1.04-.14 0 0 .2.12 0 0zm-.02-1.02l.06-.04a.1.1 0 0 0 .06-.02l-.25-.01c-.12.02.01.05.13.07 0 0-.04.01 0 0zm-2.04-.34a3.34 3.34 0 0 1-.39-.05l.02.02.37.03s.12.01 0 0zm5.33-7.86l-.26-.3a4.3 4.3 0 0 1-1.02.4c-.17.39-.43.87-.8 1.39l.12-.08c.2-.11.43-.2.67-.3l.14-.05a3.55 3.55 0 0 1 1.17-.16c.12-.07.2-.17.23-.26a.47.47 0 0 1-.3-.48c.01-.05.02-.1.05-.16 0 0 .09.1 0 0zm.92 1.18c-.1-.15-.22-.3-.34-.45-.14.1-.31.15-.45.18.29.03.56.12.8.27zm2.65-8.28c-.13.15-.3.32-.51.51l-1.6 1.37c-.27.24-.46.45-.56.63-.09.18-.14.38-.14.6 0 .23.08.47.22.73s.34.54.6.84c.33.38.67.65 1.02.79s.68.17 1.01.06c.32-.1.74-.36 1.26-.81.78-.68 1.27-1.1 1.49-1.24.2-.14.39-.2.54-.2.14.01.27.06.36.16.08.06.14.07.18.03.06-.05.04-.12-.04-.22l-.2-.2a3.2 3.2 0 0 1-.34-.37c-.1-.11-.21-.23-.29-.35l-.18-.24c-.09-.1-.16-.12-.22-.07-.04.05-.03.14.06.27.12.17.13.36.03.57-.12.22-.4.5-.81.88-.74.64-1.26 1.05-1.58 1.23-.31.17-.6.24-.86.2a1.43 1.43 0 0 1-.77-.5 1.7 1.7 0 0 1-.44-.86c-.04-.28 0-.52.15-.74.15-.22.5-.58 1.08-1.07.34-.3.67-.57.98-.8.32-.24.55-.36.7-.38.16 0 .3.06.43.2.07.07.14.08.2.04.05-.05.03-.13-.06-.23a8.56 8.56 0 0 0-.7-.71l-.79-.98c-.08-.09-.14-.11-.2-.06a.12.12 0 0 0-.04.08c0 .03.03.08.08.16.08.12.13.22.13.31 0 .1-.06.23-.2.37 0 0 .13-.15 0 0zm-2.57-3.23l-.1-.08a2.7 2.7 0 0 0-2.05-.6c-.77.08-1.39.42-1.86 1-.31.4-.5.83-.57 1.3a2.43 2.43 0 0 0 1.43 2.58c-.2-.04-.65-.15-1.34-.34-1.07-.29-1.74-.28-1.98.03-.06.08-.09.16-.06.27 0 .1.06.18.15.24.1.1.2.12.29.1.08 0 .2-.08.31-.22.13-.15.23-.23.34-.25.1-.03.2 0 .31.09.08.07.15.18.22.32l.3.8c.2.52.46.92.8 1.18.36.29.76.4 1.2.34.44-.07.68-.13.74-.2.06-.08.05-.15-.01-.2-.05-.05-.12-.05-.2-.02-.34.11-.63.08-.85-.1a.55.55 0 0 1-.17-.17 3.2 3.2 0 0 1-.2-.47 6.14 6.14 0 0 0-.36-.8 1.44 1.44 0 0 0-.58-.55l1.22.28c.37.08.73.13 1.07.14.34 0 .65-.03.95-.1a2.71 2.71 0 0 0 1.45-.94c.44-.55.63-1.18.56-1.88a2.57 2.57 0 0 0-1-1.75zm0 0c.13.1.3.23 0 0zm-5.04-2.94c.02.1-.03.26-.14.52-.12.24-.38.72-.8 1.41-.39.67-.68 1.15-.89 1.46-.18.3-.35.48-.47.52-.11.04-.27.02-.49-.07-.07-.03-.12-.02-.15.03-.04.07-.02.12.06.18.05.01.1.05.2.1a10.89 10.89 0 0 1 1.62.96l.15.1c.11.07.2.06.25-.02.03-.06 0-.12-.12-.18-.16-.1-.24-.21-.25-.34-.02-.14.07-.4.28-.8a30.64 30.64 0 0 1 1.7-2.85c.14-.15.25-.24.34-.25.1 0 .23.02.41.1.1.05.15.04.18-.02.04-.06.01-.1-.07-.16l-1.06-.59-.44-.28-.47-.3c-.09-.06-.15-.05-.2.01-.03.06 0 .12.08.18.16.11.24.2.28.3 0 0-.02-.1 0 0zm-6.9 2.05c-.02.05 0 .1.05.12l.22.1.47.18 1.07.44.74.34.1.05c.08.03.14.01.17-.06.02-.06-.01-.11-.1-.15a1.43 1.43 0 0 1-.48-.34c-.06-.08-.08-.18-.06-.3.02-.13.12-.45.32-.99l.65-1.66c.24-.55.46-1.01.66-1.36.44.18.74.34.91.47.18.12.3.28.4.48.06.2.12.42.13.66 0 .13.04.22.1.24.1.04.14 0 .18-.09l.18-.6c.1-.31.18-.53.2-.63l-.25-.1-.48-.2c-.57-.2-1.07-.4-1.53-.6-.6-.25-1.54-.66-2.77-1.22a7.9 7.9 0 0 0-.42.7l-.25.45c-.03.08 0 .13.08.17.05.02.12 0 .2-.08.2-.2.42-.32.65-.4.22-.08.43-.1.62-.06.2.05.49.15.89.32a27.94 27.94 0 0 1-1.55 3.8c-.1.18-.22.3-.37.34a.81.81 0 0 1-.54-.07c-.1-.04-.17-.02-.18.05 0 0 .02-.05 0 0zm-5.78-3.14c-.08.36-.1.64-.07.84.03.2.12.39.25.56.14.18.34.33.6.46.27.14.59.24.98.32.5.11.92.12 1.29.03.37-.1.66-.28.86-.55.2-.27.37-.74.52-1.4.21-1.01.37-1.64.45-1.88.08-.24.19-.4.32-.48a.6.6 0 0 1 .39-.1c.08 0 .15-.02.15-.08.02-.07-.04-.12-.16-.15a7.25 7.25 0 0 1-.77-.12l-.45-.12a3.47 3.47 0 0 0-.3-.09c-.1-.02-.18 0-.2.08-.02.07.05.13.2.18.2.06.33.2.38.44a10.3 10.3 0 0 1-.67 3.1c-.15.34-.33.56-.57.68-.23.12-.53.14-.91.05a1.72 1.72 0 0 1-.87-.42c-.19-.2-.3-.42-.31-.69a16.09 16.09 0 0 1 .53-2.73c.1-.37.2-.6.33-.7.12-.1.27-.14.46-.11.1.01.15-.01.17-.08.02-.08-.04-.12-.17-.15a8.14 8.14 0 0 0-.57-.1c-.15-.02-.3-.04-.4-.07l-1.24-.3c-.12-.03-.17 0-.2.07 0 .04 0 .07.03.1l.15.07c.14.05.24.11.3.18.05.08.08.21.06.4 0 .2-.04.43-.1.72l-.46 2.04s.09-.36 0 0zm-5.67-3.1l-.02.02a2.62 2.62 0 0 0-.86 1.92c-.03.8.21 1.44.73 1.92.5.48 1.13.74 1.87.76.8.02 1.5-.24 2.07-.8.57-.55.86-1.2.88-1.92a2.55 2.55 0 0 0-1.26-2.27c-.4-.23-.85-.35-1.38-.37-.8-.02-1.48.23-2.03.75.08-.08.48-.45 0 0zm-6.38-.02c-.06.02-.09.06-.08.12.01.03.03.06.06.07.04.02.1.03.2.02a.6.6 0 0 1 .29.03c.06.03.11.09.15.18.05.1.1.31.17.65.06.34.13.79.2 1.35l.24 1.83c.03.18.03.32-.01.4a.4.4 0 0 1-.16.2c-.07.05-.18.1-.34.15-.08.02-.12.06-.11.12 0 .07.07.1.16.09l.27-.06a9.51 9.51 0 0 1 1.26-.2l.63-.06c.54-.08.95-.18 1.23-.3.27-.12.5-.32.65-.58.16-.27.22-.56.17-.85a1.12 1.12 0 0 0-.53-.84c-.3-.2-.72-.3-1.28-.35.87-.4 1.27-.9 1.18-1.5a1 1 0 0 0-.56-.8 1.9 1.9 0 0 0-1.18-.15l-.64.12c-.45.1-.93.2-1.46.27-.28.03-.45.07-.51.1 0 0 .06-.03 0 0zm-10.5 3.97c-.14.06-.18.13-.15.2.03.06.1.08.2.03.25-.12.45-.12.57 0 .14.12.35.5.67 1.16l.61 1.27.33.66c.23.5.31.8.23.92a.75.75 0 0 1-.31.28c-.1.04-.12.1-.08.16.03.07.1.08.19.03l.4-.21.55-.3 1.1-.49c.1-.04.13-.1.1-.16-.03-.07-.1-.08-.21-.03-.2.09-.37.11-.48.06-.11-.06-.21-.17-.31-.36l-.75-1.53.2-.12c.2-.09.38-.13.57-.11.18 0 .35.1.52.25.16.16.38.46.67.9.24.33.45.53.67.6l1.38-.61c.12-.06.2-.11.22-.16v.05c.02.07.08.1.17.06l.2-.08a8.36 8.36 0 0 1 1.8-.58l.17-.05c.13-.04.18-.1.16-.2-.03-.06-.1-.07-.22-.03-.18.05-.32.05-.44-.02-.1-.08-.25-.33-.41-.75a37.43 37.43 0 0 1-1.04-3.15c-.03-.2 0-.34.04-.42a.96.96 0 0 1 .35-.24c.1-.03.12-.09.1-.15-.02-.06-.08-.08-.18-.05l-1.13.41c-.13.05-.3.1-.5.15l-.55.16c-.1.03-.13.08-.11.14.02.07.08.1.19.07.17-.04.3-.05.4 0 .08.03.18.18.3.42a25.96 25.96 0 0 1 1.06 3.15c.1.36.13.59.1.7-.05.12-.18.22-.38.32a.13.13 0 0 0-.07.06v-.05c-.03-.06-.12-.07-.23-.02-.2.08-.4.08-.57 0-.17-.07-.41-.3-.71-.65-.32-.4-.62-.61-.89-.66-.28-.06-.59-.02-.93.08.28-.16.5-.34.68-.53.17-.2.29-.42.34-.67a1.12 1.12 0 0 0-.95-1.35c-.4-.06-.88.03-1.42.29l-.55.29c-.44.25-1 .54-1.68.86 0 0 .14-.07 0 0zm-4.4 3.94c-.13.76.03 1.44.47 2.05.48.65 1.07 1 1.77 1.08.7.07 1.34-.1 1.95-.54a2.73 2.73 0 0 0 1.15-1.89c.1-.78-.06-1.46-.48-2.06a2.55 2.55 0 0 0-1.07-.85c-.44-.18-.88-.25-1.33-.18a2.9 2.9 0 0 0-1.32.55 2.7 2.7 0 0 0-1.13 1.75c.03-.17.08-.45 0 0l-.01.1zm-3.48 2.2c-.07.07-.08.13-.03.18.05.05.11.05.2-.02.14-.12.26-.17.35-.17.1 0 .24.08.45.26a52.6 52.6 0 0 1 2.34 2.38c.24.27.36.47.38.59 0 .12-.06.27-.2.45-.04.06-.05.11-.01.16.05.05.11.05.18-.01l.14-.17a9.7 9.7 0 0 1 1.38-1.3l.12-.11c.1-.1.13-.18.06-.25-.05-.05-.12-.03-.21.06-.13.13-.27.19-.4.16-.13-.02-.36-.18-.7-.49-.33-.3-.79-.76-1.37-1.35-.5-.52-.8-.87-.92-1.04-.11-.18-.17-.3-.15-.4.01-.08.08-.2.21-.36.06-.07.07-.13.03-.18-.06-.05-.11-.04-.19.03l-.84.86a35.62 35.62 0 0 1-.82.73s.07-.07 0 0zm-3.38 4.02c-.1.12-.12.2-.06.25.07.05.12.04.18-.04l.07-.08c.16-.2.33-.27.5-.22.2.07.65.39 1.37.98 1.1.9 1.73 1.44 1.87 1.63.15.18.14.38-.02.6-.1.12-.11.2-.06.24.06.05.14.03.21-.07l.76-.99a105 105 0 0 0 .8-.89c.06-.09.06-.16 0-.22-.04-.02-.07-.03-.1-.01a.79.79 0 0 0-.17.16c-.12.14-.23.22-.3.25-.1.04-.2.03-.31 0-.12-.05-.3-.16-.51-.35l-1.14-.92c.32-.39.58-.59.77-.62a1 1 0 0 1 .6.18c.1.06.16.06.2.01.04-.03.04-.07.03-.1l-.53-.47-.96-.81c-.07-.06-.14-.06-.19 0-.02.03-.02.07.03.14.17.22.27.4.29.53.03.13 0 .27-.06.42-.07.14-.2.32-.38.55a11.63 11.63 0 0 1-1.45-1.27c-.04-.09.07-.28.3-.6.38-.43.7-.7 1-.78.3-.09.63-.11 1-.07.08.01.12 0 .14-.03.03-.03.02-.08-.04-.13l-.05-.03-1.05-.6-2.74 3.36s.1-.12 0 0zm-2.05 6.3c-.14.28-.15.56-.04.85.1.3.3.5.58.64a1.1 1.1 0 0 0 1.5-.53c.13-.29.14-.57.04-.87-.11-.29-.3-.5-.58-.63a1.06 1.06 0 0 0-.86-.04c-.3.1-.5.3-.64.57 0 0 .13-.28 0 0zm-3.96 6.97l-.02.1c-.12.52-.07.98.14 1.36.22.37.52.6.92.68a1.5 1.5 0 0 0 1.37-.42c.18-.19.38-.48.62-.88.24-.41.46-.7.65-.83.2-.13.41-.18.64-.12.23.04.41.18.55.4a1 1 0 0 1 .1.8c-.07.35-.27.64-.58.84-.32.21-.69.36-1.11.43-.13.02-.21.07-.23.12 0 .08.02.13.1.14l.1.02 1.43.2c.14.02.22-.01.23-.07.02-.06-.03-.13-.12-.2a.79.79 0 0 1-.2-.18c.18-.22.32-.44.44-.66.12-.21.2-.43.24-.66a1.9 1.9 0 0 0 0-.98 1.97 1.97 0 0 0-.44-.76 1.56 1.56 0 0 0-1.88-.31 3 3 0 0 0-1.03 1.23c-.22.41-.42.67-.6.8a.64.64 0 0 1-.51.13.69.69 0 0 1-.48-.37.94.94 0 0 1-.08-.67c.05-.25.2-.48.44-.7.25-.22.48-.35.74-.4.15-.05.24-.07.27-.1.03 0 .05-.04.06-.1.01-.06-.01-.1-.08-.11l-.14-.02-1.08-.1c-.11 0-.17.02-.19.09-.02.05.02.1.09.16l.13.13a4 4 0 0 0-.49 1.01zm-.64 5.17c-.04.65-.13 1.65-.24 3a8.15 8.15 0 0 0 1.3.25c.08 0 .13-.04.13-.13 0-.06-.04-.11-.14-.16a1.75 1.75 0 0 1-.59-.47 1.21 1.21 0 0 1-.26-.58c-.02-.2-.02-.5 0-.93a27.82 27.82 0 0 1 4.11.19c.21.03.36.11.45.24.09.12.13.3.12.53-.01.1.03.15.1.16.05 0 .09-.03.1-.09l.03-.24v-.5l.07-1.15.07-.82.01-.1c0-.1-.03-.14-.1-.15-.07 0-.1.05-.12.15-.04.3-.09.49-.15.56-.06.09-.15.14-.27.16a6 6 0 0 1-1.04.03l-1.79-.07c-.6-.04-1.1-.1-1.5-.16.03-.47.06-.81.13-1.01.06-.2.17-.37.33-.52.16-.15.36-.27.58-.35.13-.06.2-.12.2-.18 0-.09-.04-.13-.15-.14l-.63.02a9.3 9.3 0 0 0-.66.03l-.02.27-.02.52c0 .6-.02 1.14-.05 1.64 0 0 .05-.66 0 0zm1.26 11.01c.05-.08.2-.16.47-.25.26-.1.79-.22 1.58-.4.75-.17 1.3-.29 1.66-.35.36-.07.6-.07.71-.02.11.06.2.19.28.4.04.08.08.11.13.1.08-.02.1-.08.08-.17a9.68 9.68 0 0 1-.29-1.05c-.04-.18-.1-.51-.17-1l-.03-.17c-.04-.13-.09-.19-.17-.17.03-.03.04-.09.03-.17l-.17-1.23a8.2 8.2 0 0 1-.04-.58c0-.3-.02-.5-.04-.61 0-.12-.05-.17-.14-.17-.04.01-.08.03-.1.07v.24c.02.17 0 .3-.02.38a.38.38 0 0 1-.23.21c-.11.06-.31.1-.6.12l-1.46.16c-.04-.5 0-.83.12-.98a.99.99 0 0 1 .55-.31c.1-.02.15-.07.14-.13 0-.05-.02-.07-.05-.09-.04 0-.27 0-.71.04l-1.25.1c-.1.02-.15.06-.14.14 0 .04.04.07.12.08.28.04.48.1.6.17.1.07.18.19.24.34.05.15.1.37.13.66-1.2.13-1.85.17-1.93.13-.1-.04-.16-.25-.2-.64-.06-.57-.02-.98.14-1.25.14-.28.36-.53.65-.76.05-.04.08-.08.08-.11-.01-.06-.05-.08-.12-.07h-.06l-1.16.33.45 4.3c.01.16.06.23.13.22.09 0 .12-.06.1-.14v-.12c-.03-.26.04-.42.2-.5.17-.1.72-.19 1.65-.28 1.42-.15 2.25-.21 2.48-.18.24.03.37.18.41.44.02.15.07.22.14.22-.03.02-.03.09-.01.18.03.18.02.32-.07.42-.08.1-.35.21-.78.34-.44.13-1.06.28-1.88.47-.7.16-1.16.24-1.36.24-.21 0-.35-.01-.42-.07a.97.97 0 0 1-.2-.37c-.04-.1-.08-.13-.14-.12-.07.02-.1.08-.07.18l.3 1.17.1.5c.04.3.07.48.1.57.01.1.06.13.13.11.07-.01.1-.07.08-.17a.72.72 0 0 1 .02-.38c0 .02-.01.03 0 0l.01-.02zm2.43 5.97l.03.01c.71.3 1.42.3 2.12.03.5-.18.89-.47 1.15-.85.27-.38.43-.8.48-1.28a3.2 3.2 0 0 0-.22-1.47 4.35 4.35 0 0 0-1.54-1.95l-.26.08c-.69.24-1.07.35-1.15.34-.07-.02-.14-.08-.22-.2-.1-.17-.18-.26-.2-.29-.02-.02-.06-.02-.09 0-.07.02-.08.07-.05.14l.68 1.69.22.55c.03.09.08.12.15.09.07-.03.09-.08.05-.18a1.9 1.9 0 0 1-.07-.5.4.4 0 0 1 .14-.25c.1-.07.35-.18.76-.34.19-.07.34-.1.46-.09.13.03.26.11.43.28.16.16.28.33.35.52.17.44.1.91-.2 1.4-.3.49-.78.86-1.45 1.11-.6.23-1.18.29-1.73.15a1.49 1.49 0 0 1-1.13-.97c-.16-.4-.17-.82-.04-1.22s.35-.78.67-1.13c.08-.07.1-.14.08-.2-.03-.06-.08-.1-.16-.05a.83.83 0 0 0-.11.05l-1.03.51c-.16.08-.21.15-.19.2.02.07.09.1.2.1.07 0 .13.02.14.07.02.04.03.1.03.17-.02.36-.02.67 0 .94.02.27.08.55.19.85.33.84.83 1.4 1.51 1.69zm5.3 5.81c.73.28 1.24.4 1.51.36.27-.05.5-.13.7-.26.3-.23.49-.51.53-.86.04-.35-.05-.7-.29-1.03-.3-.43-.84-.76-1.61-.97.1-.27.18-.5.19-.7a.82.82 0 0 0-.14-.56 1.76 1.76 0 0 0-.67-.53c-.3-.14-.47-.19-.53-.14-.06.04-.07.1-.02.16.01.02.07.04.15.08.15.05.26.13.32.23.17.22.06.68-.3 1.34-.23 0-.48.02-.75.07l-.78.11a.94.94 0 0 1-.69-.27c-.08-.07-.14-.09-.18-.06-.06.04-.07.1-.01.17l.11.16c.14.16.25.3.34.43l.45.65c.07.12.15.16.21.12.05-.04.05-.1 0-.2-.14-.23-.1-.43.13-.59.28-.2.63-.3 1.05-.32a5.9 5.9 0 0 0-.6 2.12c-.56-.14-.97-.1-1.24.08a.76.76 0 0 0-.3.56c-.04.25.03.5.21.75.19.27.44.43.75.5.3.05.59 0 .83-.18.31-.22.52-.62.63-1.22 0 0-.73-.27 0 0zm5.17 5.62c.05-.26.05-.5-.03-.75a4.8 4.8 0 0 0-.45-.97 2.9 2.9 0 0 1-.39-.99.76.76 0 0 1 .22-.6c.15-.19.36-.27.63-.27.26-.01.5.08.74.3.26.25.4.56.44.93.02.38-.05.78-.19 1.17-.05.13-.05.22 0 .25.05.06.1.06.16 0l.07-.09.88-1.13c.09-.11.1-.2.06-.24-.05-.04-.12-.03-.23.02a.75.75 0 0 1-.25.08c-.1-.26-.22-.5-.36-.71-.13-.21-.27-.4-.45-.54a1.87 1.87 0 0 0-.85-.5 1.93 1.93 0 0 0-.88 0c-.3.06-.58.22-.82.5-.25.26-.39.58-.4.97-.01.38.17.88.56 1.5.24.4.37.7.4.92a.66.66 0 0 1-.72.74.9.9 0 0 1-.62-.27 1.38 1.38 0 0 1-.38-.74c-.06-.3-.06-.59.01-.84.05-.14.07-.23.07-.27 0-.03-.02-.06-.06-.1-.05-.05-.1-.05-.15 0l-.08.12-.62.88c-.07.1-.08.17-.03.21.04.04.1.04.19 0a.61.61 0 0 1 .17-.04c.25.46.49.8.7 1 .4.36.82.55 1.26.55.42.01.78-.14 1.06-.45.16-.17.27-.4.34-.64 0 0-.06.26 0 0zm4.87 2.06l.4-.61c.32-.45.54-.67.68-.66.15 0 .29.04.4.13.08.05.15.05.19 0 .04-.07.01-.13-.07-.2l-.38-.22-.54-.35-.98-.7c-.08-.05-.15-.05-.19 0-.04.06-.01.13.08.21.18.12.28.25.3.38 0 .11-.05.27-.16.45l-.95 1.42c-.1-.05-.16-.1-.21-.13-.18-.12-.3-.26-.38-.42-.09-.17-.09-.36-.04-.58.06-.22.2-.56.43-1.03.18-.38.24-.67.2-.89l-1.24-.87c-.16-.11-.26-.14-.3-.07-.04.05-.02.12.08.2.18.13.28.3.3.48.02.2-.06.51-.22.94-.18.48-.22.85-.12 1.11.1.27.27.52.55.75a2.95 2.95 0 0 0-.81-.3 1.5 1.5 0 0 0-.76.03c-.24.08-.44.23-.58.45-.23.3-.26.66-.1 1.05.14.38.46.74.96 1.08l.52.32c.45.26.98.6 1.6 1.01.11.08.2.1.24.03.04-.06.01-.12-.07-.19-.23-.16-.33-.32-.3-.5.05-.16.27-.55.68-1.15zm3.53 4.92c-.04-.08-.04-.2.01-.35.05-.14.23-.53.51-1.17l.88-1.82c.18-.38.33-.62.47-.7.14-.1.32-.08.56.02.08.04.14.03.17-.04.05-.07 0-.14-.11-.19l-.1-.04a18.22 18.22 0 0 1-1.67-.74c-.31-.17-.64-.33-1.01-.5l-1.29-.6-.71.92-.09.13c-.03.06 0 .1.06.13.05.03.11 0 .2-.05.54-.45 1.28-.47 2.2-.04.24.12.4.23.47.33.08.12.1.23.08.34a14.14 14.14 0 0 1-.82 1.76c-.35-.17-.6-.36-.71-.55a.83.83 0 0 1-.09-.66c.01-.14.01-.22-.04-.25-.08-.02-.12-.02-.16.06l-.02.06a12.08 12.08 0 0 1-.76 1.6l-.03.04c-.03.06-.01.1.06.14.05.02.1 0 .16-.07l.28-.21a.67.67 0 0 1 .45-.15c.15 0 .3.04.47.13l.28.12-.2.44c-.23.5-.46.95-.7 1.35a5.44 5.44 0 0 1-.65-.23 2.08 2.08 0 0 1-.8-.58c-.16-.21-.27-.55-.35-1.02-.02-.08-.05-.14-.08-.16-.07-.02-.12 0-.16.06l-.28 1.22 2.88 1.35.85.41c.09.05.15.03.18-.05.02-.05 0-.1-.07-.15a.92.92 0 0 1-.32-.29s.04.09 0 0zm9.47 2.78c.01-.06-.03-.1-.1-.14a.92.92 0 0 1-.3-.26c-.09-.11-.19-.39-.31-.84l-.46-2.08-.47-2.36-.28-.07-.93 1.45-1.03 1.6-.28-1.78-.27-1.83-.28-.06-1.05 1.6-1.04 1.58c-.34.5-.57.83-.73.97a.97.97 0 0 1-.36.26c-.09.03-.18.04-.3.03-.1-.02-.17 0-.17.07-.02.07.02.12.12.14l.21.03.67.13.64.17c.13.02.19 0 .21-.07.01-.06-.05-.11-.18-.15a.44.44 0 0 1-.23-.16c-.08-.1-.1-.2-.07-.35.02-.1.06-.18.11-.27.04-.1.27-.45.65-1.05.38-.6.69-1.06.91-1.38.35 1.81.5 2.87.43 3.19-.04.1-.1.2-.2.26s-.23.07-.4.04c-.09-.03-.14 0-.16.07 0 .05 0 .09.03.1l.44.11.76.15.9.23c.2.05.32.06.35.06.04-.01.06-.04.08-.07.01-.06-.02-.1-.11-.15a.7.7 0 0 1-.31-.19c-.05-.06-.11-.26-.16-.56l-.13-.65 1.34-2.05.33 1.57c.18.85.28 1.34.3 1.49.02.13.02.23 0 .31-.02.1-.08.17-.19.23a.72.72 0 0 1-.31.05c-.12-.02-.19 0-.2.07-.03.08.02.13.11.15l.66.12c.2.03.36.07.48.1l.97.23c.13.03.2.04.24.03.03 0 .05-.03.07-.07 0 0-.01.06 0 0zm5.25-.65l.02-.02c.55-.54.83-1.18.84-1.93a2.4 2.4 0 0 0-.77-1.91 2.74 2.74 0 0 0-1.89-.72c-.8-.01-1.5.26-2.05.83a2.7 2.7 0 0 0-.84 1.94c0 .47.11.91.36 1.32.23.4.54.72.93.93.4.22.86.33 1.4.33.8.01 1.46-.25 2-.77-.08.08-.47.46 0 0zm6.34-.08c.13-.02.18-.07.16-.15 0-.07-.06-.1-.17-.1-.16.02-.3 0-.39-.05a.55.55 0 0 1-.24-.27 2.6 2.6 0 0 1-.2-.7l-.33-2.06c-.09-.58-.13-.94-.11-1.09a.63.63 0 0 1 .12-.35.8.8 0 0 1 .35-.2c.1-.03.17-.06.19-.08a.08.08 0 0 0 .01-.08c0-.07-.06-.1-.15-.08l-.16.02a54.25 54.25 0 0 1-4.2.67c-.02.95-.02 1.5 0 1.68.02.08.05.1.12.1.05 0 .09-.06.12-.15.15-.45.3-.77.47-.97.15-.2.33-.36.53-.46.2-.1.5-.18.92-.25.2-.03.31-.01.39.05.06.05.13.26.2.63l.38 2.36c.09.56.14.92.15 1.09 0 .16-.04.28-.1.36-.05.07-.18.13-.34.19a.9.9 0 0 0-.26.1c-.03.02-.04.05-.03.1 0 .07.06.1.18.08l.26-.06.83-.16 1.3-.17s-.12.03 0 0zm5.05-1.6c.15-.04.21-.1.18-.17-.02-.07-.08-.1-.17-.07l-.1.04c-.24.08-.43.04-.55-.1a7.07 7.07 0 0 1-.6-1.56 21.17 21.17 0 0 1-.68-2.38c-.02-.24.1-.4.34-.5.16-.04.22-.1.2-.17-.03-.08-.1-.1-.22-.05l-1.17.42-.56.15-.6.16c-.1.03-.15.09-.12.17.02.05.04.08.07.08.04 0 .12-.01.24-.05a.9.9 0 0 1 .39-.05c.09.02.17.08.24.18.09.1.17.3.25.56l.44 1.4c-.47.14-.8.18-.98.08a.95.95 0 0 1-.4-.47c-.06-.1-.11-.13-.16-.12-.05.02-.07.04-.07.08-.01.04.05.26.17.68l.36 1.2c.03.1.09.13.16.11.04-.01.05-.06.05-.14-.02-.28 0-.48.05-.6a.62.62 0 0 1 .28-.32c.13-.09.35-.17.62-.26.37 1.15.55 1.77.53 1.87-.03.1-.22.2-.6.31-.55.17-.96.22-1.25.13-.3-.1-.59-.25-.88-.5-.05-.03-.1-.05-.12-.04-.06.02-.07.06-.06.14l.04.05.54 1.07 4.14-1.32s-.14.05 0 0zm5.54-3.11a1.37 1.37 0 0 0-.6-1.67 1.42 1.42 0 0 0-.71-.22c-.26-.01-.61.03-1.07.12-.47.1-.83.11-1.06.06a.75.75 0 0 1-.51-.4.87.87 0 0 1-.07-.68c.08-.25.27-.45.53-.6.33-.18.66-.22 1.03-.12s.73.28 1.05.55c.11.08.2.11.25.08.06-.04.08-.08.04-.16l-.07-.09-.78-1.2c-.09-.11-.16-.16-.21-.13-.06.04-.08.11-.06.23v.27c-.28 0-.55.04-.8.1-.24.06-.46.14-.65.25a2 2 0 0 0-.74.66c-.15.25-.25.52-.29.83-.04.31.04.62.21.94.18.31.44.54.8.68.37.13.9.11 1.62-.06.46-.1.78-.13 1-.08.2.05.35.15.43.3.11.2.12.4.05.6a.97.97 0 0 1-.46.5c-.23.13-.5.18-.82.14a1.63 1.63 0 0 1-.8-.28l-.23-.15-.12.02c-.06.03-.08.09-.04.15l.08.1.64.88c.07.1.13.12.2.09.04-.03.06-.09.06-.18l.01-.18c.51-.09.9-.2 1.17-.35.48-.26.78-.6.92-1 0 0-.13.4 0 0zm5.78-3.76c.1-.06.12-.13.07-.2l-.08-.04a.51.51 0 0 0-.16.07c-.13.08-.23.12-.33.11-.1 0-.21-.07-.36-.2a4.4 4.4 0 0 1-.47-.54l-1.3-1.66a2.25 2.25 0 0 0-.6-.58c-.16-.1-.37-.16-.6-.18-.21 0-.46.06-.74.18-.26.12-.56.3-.86.54-.4.32-.68.65-.84.99-.17.33-.22.67-.13 1 .08.32.33.76.75 1.29a19 19 0 0 1 1.16 1.55c.13.21.19.4.17.55a.62.62 0 0 1-.16.36c-.08.07-.1.12-.05.17.05.06.12.05.23-.03l.2-.2a6.86 6.86 0 0 1 .76-.58l.25-.17c.1-.08.13-.15.08-.21s-.14-.04-.28.04c-.17.12-.36.12-.57 0a3.7 3.7 0 0 1-.84-.85c-.6-.76-.98-1.3-1.13-1.63a1.3 1.3 0 0 1-.17-.87c.06-.26.24-.5.54-.75.3-.23.6-.37.88-.38.28-.03.52.03.74.2.21.15.55.52 1.01 1.11.29.37.54.7.75 1.03.23.32.34.56.34.71 0 .16-.06.3-.2.43-.1.06-.1.13-.06.17.04.07.11.05.23-.03.11-.08.26-.2.44-.38l.3-.26 1.03-.76s-.1.07 0 0zm2.63-2.76l.03-.04c.53-.61.78-1.29.73-2.06a2.62 2.62 0 0 0-.93-1.88 2.46 2.46 0 0 0-1.96-.67c-.7.08-1.29.4-1.78.96-.53.6-.77 1.3-.7 2.09a2.7 2.7 0 0 0 2.16 2.5c.47.09.9.05 1.33-.12.4-.15.79-.41 1.12-.78zm0 0c-.4.45-.1.12 0 0zm4.84-6.99c.06-.11.06-.19 0-.22-.07-.05-.13-.02-.2.08-.08.13-.19.21-.28.26a.69.69 0 0 1-.38 0 2.88 2.88 0 0 1-.64-.3c-.7-.4-1.3-.77-1.8-1.07-.5-.31-.8-.51-.91-.62a.56.56 0 0 1-.19-.32.66.66 0 0 1 .07-.4.6.6 0 0 0 .06-.18c0-.03-.02-.05-.04-.08-.07-.04-.12-.01-.18.07l-.08.15c-.13.28-.32.6-.56 1.03a78.83 78.83 0 0 1-1.62 2.6c.71.63 1.14.99 1.28 1.08.06.04.12.02.15-.03s.02-.1-.03-.19a3.2 3.2 0 0 1-.45-.98 1.71 1.71 0 0 1-.01-.7c.05-.21.19-.5.41-.87.1-.16.18-.24.28-.26.08-.01.29.07.61.25l2.06 1.23c.5.3.8.48.93.6.13.1.2.2.2.3.03.1 0 .22-.06.38a.86.86 0 0 0-.08.26c-.01.04 0 .07.04.09.06.04.12.01.19-.08l.12-.24.4-.74.71-1.1s-.06.11 0 0zm2.57-5.94c.05-.1.04-.17-.05-.2h-.08c-.03.02-.06.06-.1.15a.53.53 0 0 1-.24.25c-.08.04-.22.04-.4 0-.2-.04-.43-.12-.7-.22l-1.93-.8c-.35-.14-.63-.2-.82-.2-.2 0-.4.05-.6.15-.2.1-.39.28-.56.52-.18.24-.33.54-.47.9-.2.47-.28.9-.25 1.27.03.38.17.69.4.93.24.24.66.49 1.3.75.96.38 1.54.63 1.77.76.22.12.36.24.43.4.06.13.07.26.04.39-.03.09-.02.15.04.17.08.02.13-.02.18-.15l.1-.26c.04-.18.1-.33.15-.47a5.36 5.36 0 0 1 .33-.69c.04-.12.03-.2-.03-.22-.08-.03-.15.03-.23.17-.1.19-.25.29-.5.29a10.65 10.65 0 0 1-2.95-1.16c-.3-.21-.5-.43-.58-.68a1.4 1.4 0 0 1 .1-.92c.15-.35.34-.61.56-.77a1 1 0 0 1 .75-.2c.26.03.73.19 1.44.46.42.18.81.35 1.15.52.36.17.58.32.65.45.08.13.1.29.03.47-.03.1-.01.16.05.19.08.02.13-.02.18-.15.06-.13.12-.31.2-.55l.13-.39.51-1.16s-.05.1 0 0zm-3.74-6.05a1.26 1.26 0 0 1 0-.3l.02-.08c.05-.24.15-.42.32-.51.16-.1.63-.28 1.37-.53 1.66-.54 2.87-.97 3.63-1.27l.02-.27a87.58 87.58 0 0 0-3.65-1.65c-.4-.17-.68-.3-.87-.42-.19-.12-.3-.22-.36-.31-.06-.1-.1-.22-.15-.38 0-.06-.04-.1-.1-.1-.08 0-.13.05-.13.14v.12c.02.18.02.38.01.59l-.05.5-.04.33c-.01.1.02.16.1.17.06 0 .12-.05.12-.15a.83.83 0 0 1 .16-.36.4.4 0 0 1 .35-.15c.2.02.6.15 1.2.41 0 .3-.02.7-.05 1.23l-.03.4a7.05 7.05 0 0 1-1.37.37c-.22-.01-.34-.18-.35-.5-.01-.09-.04-.14-.1-.14-.07 0-.11.05-.11.18-.02.07-.02.2 0 .43 0 .3 0 .53-.02.7a7 7 0 0 1-.07.7l-.04.4c-.02.01-.02.03-.03.06l-.04.26c-.04.3-.08.54-.13.7a5.9 5.9 0 0 1-.13.55c-.07.27-.13.47-.15.6a5 5 0 0 0-.16 1.26c.03.3.13.57.32.8.2.26.45.41.74.48.35.07.67 0 .97-.2.29-.22.55-.58.77-1.08.06.95.4 1.5 1 1.62.36.08.67 0 .94-.24.28-.23.47-.58.56-1.05l.12-.64c.05-.46.15-.94.26-1.45.07-.28.08-.45.08-.52 0-.06-.01-.1-.07-.11-.04 0-.08 0-.1.03a.58.58 0 0 0-.08.19.6.6 0 0 1-.12.24.48.48 0 0 1-.23.1 30.59 30.59 0 0 1-2.01-.36l-1.8-.42a.89.89 0 0 1-.39-.16.44.44 0 0 1-.13-.21s0 .06 0 0zm-.21 1.42c.08-.03.35 0 .82.12l1.36.33c-.03.15-.04.26-.07.34-.08.4-.25.65-.51.8a1.3 1.3 0 0 1-.93.1c-.34-.07-.59-.23-.74-.46-.17-.23-.2-.52-.11-.9.04-.2.1-.31.18-.33m-11.18-30.2c-.35-.27-.48-.65-.43-1.14.06-.49.33-1.03.8-1.62.5-.63.97-1 1.43-1.16.47-.14.86-.1 1.19.16.32.26.47.63.42 1.1-.03.5-.3 1.04-.8 1.67-.52.66-1.01 1.05-1.48 1.16-.46.12-.83.07-1.13-.18m14.5 32.3c-.76-.18-1.04-.7-.84-1.58a25.56 25.56 0 0 1 2.03.45c.03.23.02.41-.01.56a.73.73 0 0 1-.37.5c-.2.11-.47.13-.8.06m-32.8-38.95c-.43 0-.78-.23-1.02-.66a3.28 3.28 0 0 1-.34-1.77c.03-.8.17-1.39.46-1.78.27-.4.63-.6 1.05-.58.4.01.75.22 1 .63.26.41.38 1 .36 1.8-.03.85-.19 1.46-.48 1.82-.3.37-.64.55-1.03.54m38.44 30.72a39.32 39.32 0 0 1-47.33 38.41 39.33 39.33 0 0 1-31.34-38.4 39.33 39.33 0 0 1 39.35-39.24 39.32 39.32 0 0 1 39.32 39.23zm-79.24 0a39.9 39.9 0 0 0 39.92 39.8c22 0 39.9-17.86 39.9-39.8a39.9 39.9 0 0 0-46.68-39.23 39.9 39.9 0 0 0-33.14 39.23zm39.92-40.43a40.52 40.52 0 0 1 40.52 40.43 40.52 40.52 0 0 1-47.6 39.8 40.52 40.52 0 0 1-33.47-39.8 40.53 40.53 0 0 1 40.55-40.43s-22.33 0 0 0zm13.84 58.74c-.07-.07-.14-.13-.04-.09-.3-.33-.6-.92-.38-1.37l.11-.19c.35.05.69.08 1.03.1.1.27.04.6-.28.76-.35.17-.32.52-.13.79h-.31m.9 0c0-.12 0-.24.06-.34.21-.37.52-.37.7-.25v.59zm-2.3-.61l-.02-.01-.07-.06c-.37-.3-.77-.84-.89-1.38.42.11.86.22 1.3.3-.28.45.45 1.34.96 1.76h-1.49a7.45 7.45 0 0 0-2.44 0h-4.2v-.05l.01-.04-.07.09H7212c-.4-.32-.9-.67-.58-1.21.22-.38 1.27-.68 1.74-.8l.23-.06a.4.4 0 0 1-.16-.12c-.12-.18.13-.65.23-.8.19-.38.4-.74.7-1.06.17.11.33-.01.35.15.06.26.06.57.19.93.03.16.1.3.15.43l.12-.02-.04-.12c-.07-.27-.39-1.1-.26-1.26.24-.3.77-.12 1.02-.06.35.07.65.16.98.31.62.25-.3 1.08-.83 1.45-.12.08-.36.24-.53.24l-.02.12.16-.05c.12-.03.25-.04.38-.04.11-.07.23-.1.38-.12.58-.07 1.12.35 1.5.72.27.16.52.33.72.53.42-.06.97-.11 1.6-.08l-.12-.06a3.62 3.62 0 0 1-1.5-1.37.66.66 0 0 0-.36-.06c.06.2-.04.42-.23.51a.45.45 0 0 1-.6-.2.44.44 0 0 1 .14-.57.32.32 0 0 1 .1-.06c.38-.15.7.09.9.28a1.8 1.8 0 0 1-.2-.73c.6.31 1.22.59 1.86.81-.25.63.34 1.3.99 1.54.32.06.64.12.97.22.07.06.14.12 0 0zm-3.74-.2l.11-.01-.27-.16c0 .02.02.03.03.04l.13.14s-.04 0 0 0zm-7.28.64a.8.8 0 0 1 .72.17h-1c.06-.1.14-.15.28-.17m19.28-21.19c.3-1.1.88-2.32 1.34-3.16.1-.15.21-.34.35-.53v5.29zm-1.61-1.67c-.02.05-.02.08-.05.1l-1.71-1.63c.2-.1.48-.16.6-.2.3-.11 1.23-.72 1.35-.17.04.16-.04.52-.1.72-.11.37-.06.83-.1 1.18m.3-.53c.02-.28-.08-1.16.19-1.37.3-.22.53 0 .97.39.42.35.17.17-.03.62-.19.46-.1 1.06-.34 1.1-.33.09-.2.05-.67-.04-.39.1-.13-.48-.12-.7m.32-1.72a.29.29 0 0 1-.4.06.3.3 0 0 1-.07-.41.3.3 0 0 1 .41-.05c.13.1.16.27.06.4m-36.95-7.22l-.3-.26c.24.06.48.1.72.13-.15.03-.28.08-.42.13m4.4 28.81c-.48-.53-2.04-1.71-2.51-2.76.21-.44.37-.9.47-1.39a7.3 7.3 0 0 1 2.3-.5c1.31-.09 2.69-.85 3.85-1.15 1.42-.4.59 4.07-.5 6.39.12.08.25.2.37.34.43.49 1.37 1.13 2.28.86h-.18c.64-.26.76-1.23.74-1.69-.05-.81-2.88-2.87-.92-4 1.94-1.15 2.23 2.9 2.85 3.43.36.3 1.04 1.08 1.62.73-.01.04-.05.07-.08.1.88-.37 1.2-1.45 1.23-2.1 0-.36.08-.62.2-.8a5.32 5.32 0 0 1-1.42-.29c-.61-.22-2.48-1-2.8-1.68-.32-.68.85-2.1 1.24-2.56a15.28 15.28 0 0 1 3.1-3.12c.47.49 1.07.18 1.05.76 0 .88-.17 1.92 0 3.22.12 1.31.7 2.16-.24 3.36l-.06.06c.18.16.22.59-.03 1.54a2.63 2.63 0 0 1-2 1.82c.8-.05 1.5-.3 1.8-.7.32-.5.8-1.83 1.44-1.66.3.06 1 .63-.19 2.01-.39.47-1.35.78-2.3.82.67.12 1.14.15 1.41.1.91-.12 1.31-.66 1.68-.53.37.13.33.76-.43 1.15-.75.38-2.55.37-4.6-1h-.19c1.4.83 2.79 1.48 3.34 1.58.91.18 1.43.17 1.61.38.19.22.27.9-.88.82-.9-.07-2.7-.74-4.34-2.78a3.2 3.2 0 0 1-.3-.06 33.21 33.21 0 0 0 3.49 2.99h-1.54c-.7-.7-1.44-1.7-2.1-3.03-.15-.07-.3-.14-.42-.24a.77.77 0 0 1-.16.52c.25 1.06.36 1.96.37 2.75h-.65c.1-.85.14-1.8.18-2.63l-.2.2a8.37 8.37 0 0 1-.25 2.43h-.85c.34-.65.6-1.4.9-2.29l-.16.1c-.27.9-.64 1.63-1.04 2.19h-.91c.29-.2.52-.44.77-.76-.48.35-1.09.63-1.75.76h-1.56c-.71-.24-.74-.88-.6-1.06.4-.54 1.2.1 2.23.08a2.92 2.92 0 0 0 2.13-.78c-.7.55-2.06.73-3 .04-.2-.14-.34-.27-.47-.37a.31.31 0 0 0-.06.07c-1.16 1.25-2.39-1.03-2.96-1.67m8.47 3.69a19.7 19.7 0 0 0-.43-3.27c.46.96 1.4 2.33 2.13 3.27h-.9l-.16-.3c.04.1.05.2.06.3zm13.29-34.24c1.12.85 3.22-.77 4.77-2.25h2.57c.26 1.12.2 2.3-1.03 3.29-2.09 1.66-5.78 1.93-6.31-1.04m3.84-2.25c-1.47 1.25-3.14 2.18-4.03 1.4-.5-.46-.7-.93-.83-1.4h4.86m-4.87 1.48c.3.41-.45.71-.89 1.02-.91-.9-.81-1.63-1.48-2.5h1.91c.1.52.19 1.1.46 1.48m-19.84 4.93a.77.77 0 1 1 .58-.92c.1.41-.16.82-.58.92m4.6-6.41c-.06 1.44-3.35.76-4.7 0h4.7m7.04 5.54c-1.29-.1-1.4-1.22-1.6-3.19-.1-.8-.29-1.63-.34-2.35h6.5l.35.46c1.2.6-.8 1.52-1.32 2.02-.67.67-2.45 3.13-3.59 3.06m-.03 7.62c-.17-.9-.98-3.82-.44-4.37.88-.9 2.59-.14 3.46.17.65.2 1.24.42 1.84.68v3.5c-.75.5-1.56.95-2.2 1.31-.58.28-1.35.98-1.85.45-.56-.56-.63-.8-.8-1.74m-3.28 1.34c-.65-.17-2.3.44-2.67-.2-.38-.66.66-2.18 1.01-2.67.8-1.24 1.61-2.37 2.79-3.4.51.46 1.09.1 1.11.68.08.87 0 1.92.29 3.2.24 1.3.61.96-.22 2.24-.4.65-1.81.28-2.31.15m2.55-6.43c-.55.1-1.07-.26-1.19-.8a1 1 0 0 1 1.98-.37.99.99 0 0 1-.8 1.17m-10.74 10.15c-.66-.06-.71-.62-.82-1.63-.12-.96-.47-1.93.33-2.28.76-.38 1.82.24 2.17.45.54.3.32.17.83.85.63.32-.4.78-.67 1.04-.34.35-1.25 1.6-1.84 1.57m1.36-.5c.57-.33 1.02-1 1.49-1.4.67-.62 1.47 2.71 1.22 3.67-.25.84-1.34.09-1.75-.08-.5-.2-2.45-.5-1.94-1.36.15-.25.66-.63.98-.82m-.97 5.29c-.28-.29-.31-.41-.4-.9-.1-.45-.5-1.95-.23-2.23.45-.47 1.33-.07 1.78.08.58.18 1.08.4 1.63.7 1.05.54-.84 1.55-1.81 2.12-.3.14-.7.5-.97.23m-2.08-.2c-.28-.08-.93.13-1.24 0v-.85c.13-.26.3-.5.4-.63.4-.63.82-1.21 1.42-1.73.26.22.55.04.57.33.04.45 0 .99.15 1.65.12.66.31.49-.11 1.15-.21.33-.94.13-1.19.08m.49-4.37c-.03.04-1.06-.25-1.72-.46v-2.89c.67-.53 1.56-1.34 1.6-.64.05 1 .73 3.35.12 4m-.04 1.05c-1.13.46-1.29 1.18-1.69 1.86v-3.13c.6.14.97.25 1.64.43-.26.28-.3.74.05.84m1.26-.6a.5.5 0 0 1-.4.6.5.5 0 0 1-.6-.4.51.51 0 0 1 .4-.6c.27-.05.55.13.6.4m23.28-7c-.49-.03-.64-.36-.73-.94l2-1.85v1.88c-.4.45-.9.95-1.27.92m1.28 1.38c-.63-.2-1.2-.52-.9-1.04.13-.24.57-.57.9-.77v1.81m-8.25 10.07c-1.39-.53-3.3-1.35-2.44-2.55a6.73 6.73 0 0 1 2.05-1.42l.39-.21zm2.76-6.47c1.1-.84 1.94 3.04 1.93 5.63.11-.51.55-.94 1.48-1.1.97-.08-.35-2.46-1.34-3.7l.04.03-.03-.02c.72.44 1.42.54 1.99.5-.36-.69-.24-1.42.3-1.83-.09-.14-.12-.3-.17-.58-.09-.46-.5-1.95-.23-2.24.37-.38 1.04-.18 1.51 0v6.1a6.57 6.57 0 0 1-2.88-1.5c.73.67 2.04 1.96 2.88 3.28v3.65c-.16.11-.35.19-.53.22l-7.14-6.57c.78-.6 1.49-1.36 2.19-1.87m2.52-.38c-.33-.09-1.18.22-1.38-.1-.19-.35.34-1.12.53-1.38.4-.63.82-1.2 1.43-1.73.26.23.55.04.57.34.04.45 0 .99.15 1.65.13.66.31.48-.12 1.14-.2.33-.93.14-1.18.08m.49-4.37c-.02.03-.3-.04-.66-.14l.9-.84c0 .43-.05.8-.24.98m-2.25 3.58c-.3.26-.64-.64-.87-1.46l2.28-2.1.75.2c-.26.28-.31.74.05.85-1.5.6-1.28 1.67-2.21 2.5m2.47-2.9a.5.5 0 0 1 .4-.6.5.5 0 0 1 .6.4.52.52 0 0 1-.4.6.51.51 0 0 1-.6-.4m-6 3.9l1.92-1.77.32.54c1.15.72-.92 1.43-1.49 1.9-.72.6-2.7 2.9-3.85 2.71-1.27-.21-1.29-1.33-1.31-3.3-.06-1.88.06-.84 1.67-1.4 1.08-.4 2.04-1.3 2.75-1.66zm-3.4 13.3c-.5-.6-.33-1.37-.42-2.32-.09-.92-.63-3.9-.05-4.4.96-.81 2.6.1 3.44.48l.43.19v3.4c0 .61.09 1.19.25 1.75-.47.26-.93.5-1.32.67-.61.23-1.87.8-2.33.23m-6.31-11.3c-.88-.56-2.71-.86-2.29-2.34.24-.8 1.16-.97 2-1.42 1.3-.67 4.52-.39 4.46 1.3-.08 1.94 1.35 2.95.05 4.1-.08.08-3.66-1.31-4.22-1.65m-.78 8.18c-.91.68-2.95-2.6-2.41-3.68 1.32-2.73.6-3.23 1.1-4.14.74-1.4 1.42.07 2.16.31 1.73.52 2.4.8 3.95 1.38-.55.5-.73 1.38-.05 1.64-3.02.92-2.8 3.03-4.75 4.49m7.3-5.42a1 1 0 1 1-2 .19 1 1 0 0 1 2-.19m-10.01 4.03c.8 1.09-1.4 1-2.1 1.21-.75.25-2.77 1.26-3.99 1.24.03-.2.04-.39.04-.58v-4.14c.22.03.58.31 1.45.36 1.66 0 3.48-1 3.9-.32.68.98.4.6.7 2.23m-3.34 9.36c.5.7.24 1.23-.4 1.63h-6.96c0-.59.32-1.14.53-1.89.08-.24.17-.65.29-1.1a9.9 9.9 0 0 0 2.78-2.7c.63.4 1.17 1.04 1.54 1.42.84.8 1.54 1.63 2.22 2.64m17.46-3.11c.06-.15.31-.38.48-.5.42.48.92.93 1.51 1.34-.24.08-.64-.12-.82-.18-.29-.08-1.4-.14-1.17-.66m-.79-1.05c-.12-.54-.03-.25.4-.5l.13-.08c.16.33.37.66.62.97-.2.25-.4.5-.6.5-.37 0-.44-.33-.55-.89m-.36-.1c.09.57.55.78.24 1.18a9.72 9.72 0 0 1-1.3-.24c-.3-.11-.83-.09-.78-.55.01-.24.26-.34.49-.51.34-.26 1.28-.36 1.35.12m-.83 3.34c-.23.24-1-.59-.91-.93.24-.85 0-.96.09-1.25.14-.44.42-.06.64-.03.52.06.74.1 1.22.18-.14.18-.14.43.07.48-.81.42-.63 1.02-1.11 1.55m1.43-2.16a.3.3 0 0 1 .36.2.3.3 0 0 1-.2.36.28.28 0 0 1-.36-.2.3.3 0 0 1 .2-.36m13.46-25.41a.9.9 0 0 1 0 1.8.9.9 0 0 1-.9-.9c0-.5.4-.9.9-.9m-21.06 26.5a.9.9 0 1 1 .01-1.82.9.9 0 0 1-.01 1.81m22.6-26.89c.33 0 .62.28.62.63 0 .34-.3.61-.62.61a.63.63 0 0 1-.64-.61c0-.35.29-.63.64-.63m-28.63 27.04c0-.65.52-1.17 1.16-1.17a1.16 1.16 0 1 1 0 2.33c-.64 0-1.16-.52-1.16-1.16m4.86-2.95c.35 0 .62.28.62.62a.62.62 0 1 1-1.24 0c0-.34.28-.62.62-.62m-3.77-2.1a.62.62 0 1 1 1.24 0 .62.62 0 0 1-1.24 0m28.66-22.7c.28 0 .48.22.48.5 0 .25-.2.47-.48.47a.48.48 0 0 1-.48-.48c0-.27.22-.48.48-.48"/></defs><g><g transform="translate(-7167 -812)"><use fill="#2d2d2d" xlink:href="#kr62a"/></g></g></svg>